/* XPM */
static char *result[] = {
/* columns rows colors chars-per-pixel */
"40 40 2 1 ",
"  c red",
". c None",
/* pixels */
"........................................",
"........................................",
"........................................",
"................... ....................",
"................... ....................",
"................... ....................",
"................... ....................",
"..................   ...................",
"..............           ...............",
".............  .... ....  ..............",
"...........  ...... ......  ............",
"..........  ....       ....  ...........",
".......... ...  ... ...  ... ...........",
"......... ... ..... ..... ... ..........",
"......... .. ............. ..  .........",
"........ ... ............. ... .........",
"........ .. ............... .. .........",
"........ .. .......  ...... .. .........",
"........ .. .......  ...... ..  ........",
"...           ...      ...          ....",
"...          ......  ......         ....",
"........ .. .......  ...... .. .........",
"........ .................. .. .........",
"........ ... ............. ... .........",
"......... ... ........... ... ..........",
".........  ..  .... ....  ..  ..........",
".......... .... ... ... .... ...........",
"........... .....     ..... ............",
"............  ..... .....  .............",
".............   ... ...   ..............",
"...............         ................",
"................... ....................",
"................... ....................",
"................... ....................",
"................... ....................",
"................... ....................",
"................... ....................",
"........................................",
"........................................",
"........................................"
};
