/* XPM */
static char *result[] = {
/* columns rows colors chars-per-pixel */
"128 128 23 1 ",
"  c #000001",
". c gray23",
"X c #005B5B",
"o c #006F6F",
"O c #007373",
"+ c #007777",
"@ c #007B7B",
"# c #007F7F",
"$ c #4B4B4B",
"% c gray34",
"& c #008787",
"* c #008F8F",
"= c #009B9B",
"- c #009F9F",
"; c #00A7A7",
": c #23B3B3",
"> c #23B7B7",
", c #4BC3C3",
"< c #77CBCB",
"1 c #9FDFDF",
"2 c #BBEBEB",
"3 c #DBF7F7",
"4 c None",
/* pixels */
"...........................................................4444444444...........................................................",
"...........................................................4444444444...........................................................",
"..Oooooooooooooooooooooooooooooooooooooooooooooooooooooooo 4444444444 Oooooooooooooooooooooooooooooooooooooooooooooooooooooooo$.",
"..O+++++++++++++++++++++++++++++++++++++++++++++++++++++++ 4444444444 O+++++++++++++++++++++++++++++++++++++++++++++++++++++++$.",
"..O@@@@@@@@@@@@@@@@@@@@@@@@@@@@@@@@@@@@@@@@@@@@@@@@@@@@@@+ 4444444444 O@@@@@@@@@@@@@@@@@@@@@@@@@@@@@@@@@@@@@@@@@@@@@@@@@@@@@@+$.",
"..O&&&&&&&&&&&&&#:,&&&&&&&&&&#:,&&&&&&&&&&#:,&&&&&&&&&&&&@ 4444444444 O&&&&&&&&&&&&&#:,&&&&&&&&&&#:,&&&&&&&&&&#:,&&&&&&&&&&&&@$.",
"..O&&&&&&&&&&&&#+*;&&&&&&&&&#+*;&&&&&&&&&#+*;&&&&&&&&&&&&@ 4444444444 O&&&&&&&&&&&&#+*;&&&&&&&&&#+*;&&&&&&&&&#+*;&&&&&&&&&&&&@$.",
"..O===========*#+o#========*#+o#========*#+o#=========***& 4444444444 O===========*#+o#========*#+o#========*#+o#============&..",
"..O;;;;;;;;;;;*###*;;;;;;;;*###*;;;;;;;;*###*;;;;;;;;****& 4444444444 O;;;;;;;;;;;*###*;;;;;;;;*###*;;;;;;;;*###*;;;;;;;;;;;;&..",
"..O;;;;;;;;;;;=***=;;;;;;;;=***=;;;;;;;;=***=;;;;;;;*****& 4444444444 O;;;;;;;;;;;=***=;;;;;;;;=***=;;;;;;;;=***=;;;;;;;;;;;;&..",
"..O:::::::::=oXXXXXXXXXXXXXXXXXXXXXXXXXXXXXXXXXXO==******* 4444444444 O:::::::::=oXXXXXXXXXXXXXXXXXXXXXXXXXXXXXXXXXXO::::::::=..",
"..O:::::::::,=XXXXXXXXXXXXXXXXXXXXXXXXXXXXXXXXXXO=******** 4444444444 O:::::::::,=XXXXXXXXXXXXXXXXXXXXXXXXXXXXXXXXXXO::::::::=..",
"..O:::::::::,,**&&&&#&####@@@OO+++oOOO++O++@@@@XO********* 4444444444 O:::::::::,,#####*********======:::::::::::,:XO::::::::=..",
"..O:::::::::,,*&&&&#&####@@@OO+++oOOO++O++@@@@@XO********* 4444444444 O:::::::::,,;=;::::>::>>>,,>,,,,<<<<1<<111221XO::::::::=..",
"..O:::;13:::,,*&&&&#&###@@@OO@++oOOOOOO++@++@@@XO*&&#:,*** 4444444444 O:::;13:::,,;;;;;::::>>>>>>,,,,,<<<<1<1111111XO:::;13::=..",
"..@:::*>1:::,,&&&&####@#@@OO+++ooOOOO++++@+@@@@XO*&#o*;*** 4444444444 @:::*>1:::,,;;::::::>>>,>,,,,<<<<<<1111121221XO:::*>1::=..",
"..@::;#*=:::,,&&#&####@@@OO@++oOOO+++++@@@@@##@XO**#oo#*** 4444444444 @::;#*=:::,,::::>:>>>>,,>,,,<<<<<1<1111221221XO::;#*=::=..",
"..O:;;=*;:::,,&&&&####@@OO@++OOOOO+O++@++@@@##@XO**###**== 4444444444 O:;;=*;:::,,:;::::>>>>,>,,,,,<<<<<<1111112221XO:;;=*;::=..",
"..O::;;;::::,,&#####@@@OO++++OOOOO++++++@@@####XO******=== 4444444444 O::;;;::::,,:;:::>>>>>,,,,<,<<<<111111122222,XO::;;;:::=..",
"..O:::::::::,,##@##@@@OO@+++OOO+O++++@@@@####&#XO*****==;= 4444444444 O:::::::::,,:>>>>>>,,,,,,<<<<<11111122222222,XO::::::::=..",
"..O:::::::::,,&####@@OO@++OOOO++O++@+@@@@###&&#XO****==;;= 4444444444 O:::::::::,,:::>>>>,>,,,,<<<<1<<111121222111,XO::::::::=..",
"..O:::::::::,,###@@@OO++++OOOOOO++@++@@@@#####&XO***==;;:= 4444444444 O:::::::::,,::>>>>>,,,,,,<<<<1<1111122222111,XO::::::::=..",
"..O:::::::::,,##@@@OO++++OOOOO++++@+@@##@###&&&XO**==;;::= 4444444444 O:::::::::,,>>>>,>,,,,<<<<<<1111121222222121>XO::::::::=..",
"..O:::::::::,,#@@@OO@++OOOO+++++@@@@@@###&&&&&&XO*==;;:::= 4444444444 O:::::::::,,>>>,,>,,,,<<<<1<1111221222211111=XO::::::::=..",
"..O:::::::::,,@@@OO@++++OOO+O++@++@@@####&#&&&&XO==;;::::= 4444444444 O:::::::::,,>>>>>,,,,,<<<<<<1111112222111<<<=XO::::::::=..",
"..O:::::::::,,@@OO++++OOOOO++++++@@@#####&&&&&&X@=;;::::;= 4444444444 O:::::::::,,>>>,,,,<,<<<<1111111222221121<1<=X@::::::::=..",
"..O:::::::::,,@OO@++OOOO++++++@@@@@###&#&&&&***X@;;::::;-= 4444444444 O:::::::::,,,,,,,,<<<<<1<1111222222211111<<<=X@::::::::=..",
"..O:::::::::,,OO@++OOOO++O++@+@@@####&&#&&&&*=*XO;::::;-;= 4444444444 O:::::::::,,,>,,,,,<<<1<<1111212222121<1<<<<*XO::::::::=..",
"..O:::::::::,,O++++OOOOOO+++++@@@##@###&&&&&***XO::::;-;:= 4444444444 O:::::::::,,,,,,,,<<<<1<11111222221121<1<<,<*XO::::::::=..",
"..O:::::::::,,+++OOOO+O++++@@@@@#####&&&&******XO:::;-;::= 4444444444 O:::::::::,,,,,<<<<<1111112222222111111<<,<<*XO::::::::=..",
"..O:::;13:::,,++OOOO++O++@@@@@####&&&&&&**====*XO::;;13::= 4444444444 O:::;13:::,,,,,<<<<1<<111221222222111<<<<,<,*XO:::;13::=..",
"..O:::*>1:::,,++OOOO+O++@++@@@####&#&&&&&***===Xo:;-*>1::= 4444444444 O:::*>1:::,,,,,<<<<<<11111122211111<<<<,,,,,*Xo:::+>1::=..",
"..O:::#*=::;,,+OOOOO++++@+@@@@####&&&&&****====Xo;-;#*=::= 4444444444 O::;#*=:::,,<,<<<<1111121222221111<1<<,<<,,,&Xo::;o+=::=..",
"..O::::;;:;;,,OOO++++++@@@@##@#&&&&&&***=====;=Xo--;=*;::= 4444444444 O:;;=*;:::,,<<<<1<1111221222222111<<<<<<,,,,*Xo:;;=*;::=..",
"..O::::::;;=,,OO++O++@+@@@@##@&&#&&&&****===;;=Xo-;;;;:::= 4444444444 O::;;;::::,,<<<1<<11112122221111<<<<<,,,,,>,&Xo::;;;:::=..",
"..O:::::;;==,,OOOO+++++@@@######&&&&******====;Xo;:::::::= 4444444444 O:::::::::,,<<<1<1111122222111<<1<<,<,,,,>>,&Xo::::::::=..",
"..O::::;;==*,,+O++++@@@@####&#&&&&***=======;;;Xo::::::::= 4444444444 O:::::::::,,<1111112222222222111<<<<<,,,,>,>&Xo::::::::=..",
"..O:::;;==**,,+O++@@@@@@###&&#&&&*****===;;;;;;Xo::::::::= 4444444444 O:::::::::,,1<<111221222111111<<<<,,,,,,>>>>&Xo::::::::=..",
"..O::;;==***,,O++@++@@@@###&#&&&&*=**====;=;;;;Xo::::::::= 4444444444 O:::::::::,,1<1111112222111<<1<<,,,,,,>>>:>>&Xo::::::::=..",
"..O:;;==****,,+++@+@@@#@###&&&&*&*=*=====;;;;;;Xo::::::::= 4444444444 O:::::::::,,111121222222121<1<<,<<,,,,>,>:>>&Xo::::::::=..",
"..O;;==*****,,+@@@@@@###&&&&&&*****===;;;;;;:::Xo::::::::= 4444444444 O:::::::::,,111221222211111<<<<,<,,,,,>>>:::&Xo::::::::=..",
"..@;==******,,@++@@@###&&#&&&&*=**=*=;;=;;;;:::Xo::::::::= 4444444444 @:::::::::,,111112222121<<<<<<,,,,,>,>:>>:::#Xo::::::::=..",
"..@==*******,,++@@@######&&&&&***======;;;;;:::Xo::::::::= 4444444444 @:::::::::,,111222221121<1<<,<,,,,>>,>:>>:::#Xo::::::::=..",
"..O=********,<@@@@###&#&&&&*****===;=;;;;::::::Xo::::::::= 4444444444 O:::::::::,<2222222111111<<<<<,,,,>>>>>:::::#Xo::::::::=..",
"..O*********<1@@####&&#&&&**=*====;;=;;;::::>>:Xo::::::::= 4444444444 O:::::::::<1212222121<1<<<<,,,,,,,>:>>:::;;;#Xo::::::::=..",
"..O*********11@@##@###&&&&&***====;=;;;;;:::>>:Xo::::::::= 4444444444 O:::::::::11222221121<1<<,,,,,,>>>>:>:::;;;;#Xo::::::::=..",
"..O*&&#:,***11@#####&&&&******====;;;;:;::::>>>Xo:::;13::= 4444444444 O:::;13:::112222111111<<,<<,,,,>,>>>:::::;;;#Xo:::;13::=..",
"..o*&#o*;***22###&&&&&&**======;;;;;;::::>>>>,>XX:::*>1::= 4444444444 o:::*>1:::2222222111<<<<,<,,,,,>>>>>::;:;;;;#XX::=o>1::=..",
"..o**#oo#**=22###&#&&&&&***===;;=;;;;::::>>:,>>XX::;#*=::= 4444444444 o::;#*=:::22211111<<<<,,,,,,>>>>:::::;;;;;==#XX::*o+=::=..",
"..o**###**==22###&&&&&****======;;;;;::::>>>,>,XX:;;=*;::= 4444444444 o:;;=*;:::2221111<1<<,<<,,,>>>:>>::::;;;;=;;#XX:;***;:;=..",
"..o******==;22&#&&&&***=====;=;;;;::::>>>>,,,,,XX::;;;:::= 4444444444 o::;;;::::2222211<<<<<<,,,,,,>>>>::::;;;;=;=#XX::;;;:;;=..",
"..o*****==;;22&#&&&&****===;;=;;;:::::>>>>>>,,,XX::::::::= 4444444444 o:::::::::221111<<<<,,,,,>,>>>::::;;;;;;====#XX:::::;;==..",
"..o****==;;:22&&&&&******====;;;;;:::::>>>>,,,,XX::::::::= 4444444444 o:::::::::221<<1<<,<,,,,>>,:>>:::;;;;;=;====OXX::::;;==*..",
"..o***==;;::22&&&*&*=======;;;;:;:::>>>>,,,,,<,XX::::::::= 4444444444 o:::::::::22111<<,<<,,,,>,>>>>::::;;;;;;=*==#XX:::;;==**..",
"..o**==;;:::11&&&****===;;;;;;:::::>>>,>,,,,<<,XX::::::::= 4444444444 o:::::::::111<<<<,<,,,,>>>>::::;:;;;;====***OXX::;;==***..",
"..o*==;;::::1<&&&***====;=;;;;;:::>:>,>>,,,,<,<XX::::::::= 4444444444 o:::::::::1<1<<,,,,,,>>>:>>:::;;;;;======***oXX:;;==****..",
"..o==;;:::::<<*****=====;;;;;;:::>>:>,>,,,,,<<<XX::::::::= 4444444444 o:::::::::<<<<,<<,,,>>,>:>>::::;;;=;;====*=*oXX;;==*****..",
"..o=;;::::::<<*====*=;=;;;;:::::>>>>>,,,,<<<<<<XX::::::::= 4444444444 o:::::::::<<,<,<,,,,,,>>::::::;;;;=;===*****oXX;==******..",
"..o;;:::::::<<***====;=;;;;:::>>:>,>>,,,<<,<<1<XX::::::::= 4444444444 o:::::::::<<,,,,,,>,>:>>:::;;;;;======*=*&&&oXX==*******..",
"..o;::::::::<<**=====;;;;;;:::>>:>,>,,,,,,<<<<<XX::::::::= 4444444444 o:::::::::<<,,,,,>>,>:>::::;;;;=;;=*=**=*&&&oXX=********..",
"..o:::::::::<<====;=;;;;:;::::>>>,,,,,<,<<<<111XX::::::::= 4444444444 o:::::::::<<<,,,,>>>>>:::::;;;;;;===*****&&&oXX*********..",
"..o:::::::::<<===;;=;;;;:::>>:>,>,,,,<<,<<11121XX::::::::= 4444444444 o:::::::::<<,,,,,>:>>:::;:;;;;=====*=*&*&&&&oXX*********..",
"..o:::;13:::<<=====;;;;;:::>>:>>>,,,,,,<<1<<111XX:::;13::= 4444444444 o:::;13:::<<,,>>>>:>:::;;;;;=;====**=*&&&&##oXX*&&#:,***..",
"..X:::*>1:::<<=;=;;;;:;::>:>>>>,,,,,,<<<<111111XX:::*>1::= 4444444444 X:::*>1:::<<,,,,>>>:::::;;;=;;===*****&&&#&&oXX*&#o*;***..",
"..X::;#*=:::<<;;=;;;:::::>>>,,,,,,<<<<<11122222XX::;#*=::= 4444444444 X::;#*=:::<<,>>>>:>::;:;;;;=;=====***&&&&#&#oXX**#oo#**=..",
"..X:;;=*;:::<<;=;;;;;:::>:>>>>,,,,<,<<1<<111222XX:;;=*;::= 4444444444 X:;;=*;:::<<>>:>>:::;;;;;=====*****&&&&#####oXX**###**==..",
"..X::;;;::::<<;;;;:;:::>>:>,,,,,,,<<<<<11112222XX::;;;:::= 4444444444 X::;;;::::<<,>:>>:::;;;;=;;===****&&&&#&&@##oXX******===..",
"..X:::::::::<<;;;:::::>>>>>,,,,<,<<<<1112222221XX::::::::= 4444444444 X:::::::::<<>>::::;:;;;;=;======**&&&&&&#@##oXX*****==;=..",
"..X:::::::::<<;;;::::>:>,>>,,,,<,<<1<1111222221XX::::::::= 4444444444 X:::::::::<<>>:::;;;;;;=====*****&&&&####@@@oXX****==;;=..",
"..X:::::::::<<;;;:::>>:>,>,,,,,<<<1<11111222111XX::::::::= 4444444444 X:::::::::<<>>:::;;;;=;====***&&&&&#&####@@@oXX***==;;:=..",
"..X:::::::::<<::::::>>,,,,,,<,<<<<1<12222221221XX::::::::= 4444444444 X:::::::::<<:::::;;;;=;=*====**&&&#&&####@@@oXX**==;;::=..",
"..X:::::::::<<:::>>:>,>>,,,<<,<<1<1111222222211XX::::::::= 4444444444 X:::::::::<<::;;;;;;=====*****&&&&#&###@@@@@oXX*==;;:::=..",
"..X:::::::::<<:::>>:>>>,,,,,,<<1<<1112222211111XX::::::::= 4444444444 X:::::::::<<:;;;;;=;====***&&&&&###@@#@@@+++oXX==;;::::=..",
"..X:::::::::<<:::>>>>,,,,<,<<<<111112222121111<XX::::::::= 4444444444 X:::::::::<<::;;;;;;===****&&&&#&&###@@@@+@+oXX=;;::::;=..",
"..X:::::::::<<>>>>,>,,,,<<,<<11122222221221111<XX::::::::= 4444444444 X:::::::::<<:;;;;=======*&*&&&&#&###@@@@@+++oXX;;::::;-=..",
"..X:::::::::<<>>:,>>,,,,<,<<1<<111222221211111<XX::::::::= 4444444444 X:::::::::<<;;;====******&&&&&#####@@@+@++++oXX;::::;-;=..",
"..X:::::::::<<>>>,>,,,,,<<<<111112222121111<<<<XX::::::::= 4444444444 X:::::::::<<;;=;;===****&&&&#&####@@@++@++O+oXX::::;-;:=..",
"..X:::::::::<<>,,,,,,<<<<<<112222222122111<<1<<XX::::::::= 4444444444 X:::::::::<<;;=;=====***&&&&#&###@@@@@@++O++oXX:::;-;::=..",
"..X:::;13:::<<>>>,,,<<,<<1<11112222212111111<<<XX:::;13::= 4444444444 X:::;13:::<<======****&&&&&####@#@@+@++++O+OoXX::;;13::=..",
"..X:::*>1:::<<>>,,,,,,<<<<11111222111111<<<<<<,XX:::*>1::= 4444444444 X:::*>1:::<<;;===***&&&&&#&####@@@++@++OOOOOoXX:;-*>1::=..",
"..X::;#*=:::<<,,,,<,<<<<111222222122111<<1<<<,,XX::;#*=::= 4444444444 X::;#*=:::<<;======**&&&&&&####@@@+@++O++OOOoXX;-;#*=::=..",
"..X:;;=*;:::<<,,,<<,<<1111112222212111111<<<<<,XX:;;=*;::= 4444444444 X:;;=*;:::<<==******&&&&#####@@@+@++++O+OOO+oXX--;=*;::=..",
"..X::;;;::::<<,,,,,<<1<12112222211111<1<<<<,,,,XX::;;;:::= 4444444444 X::;;;::::<<==***&&&&&###@##@@@++@+++OOOOO++oXX-;;;;:::=..",
"..X:::::::::<<,,,<<<<1<1212222121111<<1<<<,,,,,XX::::::::= 4444444444 X:::::::::<<==*=**&&&#&&####@@@+@++O+OOOOO++oXX;:::::::=..",
"..X:::::::::<<<<<<<1111112222222111111<<<<<,,,,XX::::::::= 4444444444 X:::::::::<<*****&&&&#&###@@@@@++++O+OOOO++@oXX::::::::=..",
"..X:::::::::<<<,<<1<1211222221111111<<<<,<,,,,>XX::::::::= 4444444444 X:::::::::<<**&&&&&######@@@++++++OOOOO++++OoXX::::::::=..",
"..X:::::::::<<<<<<<<1212222111111<<<<<<,,,,,>>>XX::::::::= 4444444444 X:::::::::<<=*&&&&#&&###@@@++@++O+OOOO+++@OOoXX::::::::=..",
"..X:::::::::<<<<<1111122221221111<1<<<<<,,,>,,>XX::::::::= 4444444444 X:::::::::<<**&&&&&&###@@@@@@+++++OOOO++@OO@oXX::::::::=..",
"..X:::::::::<<<1<1212222221211111<<<<<<,,,,>,>>XX::::::::= 4444444444 X:::::::::<<*&&&&###@#@@@+@++++OOOOO++++OO@@oXX::::::::=..",
"..X:::::::::<<1<<1112222111111<1<<<<,,,,,>>>>>>XX::::::::= 4444444444 X:::::::::<<&&&#&###@@@@++@++OOOOO+++++OO@@@oXX::::::::=..",
"..X:::::::::<<111111222122111<<1<<<<,,,,>,,>>>:XX::::::::= 4444444444 X:::::::::<<&&#&&###@@@@@@++O++OOOO++@OO@@##oXX::::::::=..",
"..X:::::::::<<12222222222111111<<<<<,,,,,,>>>>>XX::::::::= 4444444444 X:::::::::<<&&#&####@@@@++++O+OOOO+++OO@@@##oXX::::::::=..",
"..X:::::::::<<1112222211111<1<<<<,<,,,,>>>>>:::XX::::::::= 4444444444 X:::::::::<<######@@@+++++OOOOOO++++OO@@@###oXX::::::::=..",
"..X:::::::::<<112222121111<<1<<<,,,,,>,>>>>::::XX::::::::= 4444444444 X:::::::::<<&&@##@@@@+@++O++OOOO++@OO@@####&oXX::::::::=..",
"..X:::;13:::<<222221221111<1<<<<<,,,>,,>>>>:>::XX:::;13::= 4444444444 X:::;13:::<<&#@##@@@@++++++OOOO++@OO@@@####&oXX:::;13::=..",
"..X:::*>1:::<<222221211111<<<<,<,,,,>,>>>::::::XX:::*>1::= 4444444444 X:::*>1:::<<##@@@@+@++++OOOOO++++OO@@@@####&oXX:::*>1::=..",
"..X::;#*=:::<<222111111<<<<<<,,,,,>>>>>>::::;;;XX::;#*=::= 4444444444 X:::#*=::;<<##@@@++@++O+OOOO++++OO@@##@#&&&&oXX::;#*=::=..",
"..X:;;=*;:::<<22122111<<1<<<<,,,,>,,>>>::>::::;XX:;;=*;::= 4444444444 X::::;;:;;<<##@@@@@++O++OOOO++@OO@@@##@&&#&&oXX:;;=*;::=..",
"..X::;;;::::<<2222111111<<<<<,,,,>,>>>::::::;;;XX::;;;:::= 4444444444 X::::::;;=<<@@@@@++++O+OOOO+++OO@@@######&&&oXX::;;;:::=..",
"..X:::::::::<<211111<1<<<<,,,,,,>>>>>:>:::;;;;;XX::::::::= 4444444444 X:::::;;==<<@@+++++OOOOOO++++OO@@####&#&&&&*OXX::::::::=..",
"..X:::::::::<<21111<<1<<<,,,,,>,>>>>::>:::;;=;=XX::::::::= 4444444444 X::::;;==*<<@@+@++O++OOOO++@OO@@@###&&#&&&**OXX::::::::=..",
"..X:::::::::<<21111<1<<<<<,,,,,,>>>::::::;;;;;=XX::::::::= 4444444444 X:::;;==**<<@@++++++OOOO++@OO@@@@###&#&&&&*=OXX::::::::=..",
"..X:::::::::<<11111<<<<,<,,,,>>>>>>>:::;;:;;;==XX::::::::= 4444444444 X::;;==***<<+++++OOOOO++++OO@@@#@###&&&&*&*=OXX::::::::=..",
"..X:::::::::<<11<<<<<<,,,,,>>>>>>:::;::;;==;===XX::::::::= 4444444444 X:;;==****<<@++O+OOO++++@OO@@@###&&&&&&*****#XX::::::::=..",
"..X:::::::::<<11<1<<<<,,,,>,,>>>::::;:;;;;;===*XX::::::::= 4444444444 X;;==*****<<+++++OOOO++@OO@@@###&&#&&&&*=**=OXX::::::::=..",
"..X:::::::::<<11<<<<<<,,,,>,>>>>>:::;:;;;;=====XX::::::::= 4444444444 X;==******<<++OOOOO++++OO@@@######&&&&&***==#XX::::::::=..",
"..X:::::::::<<1<<<<,,,,,,>>>>>::::::;;;=====*=*XX::::::::= 4444444444 X==*******<<OOOOOO++++OO@@@###&#&&&&*****===#XX::::::::=..",
"..X:::::::::<<1<<<<,,,,>,>>>>::::;:;;;;====**=*XX::::::::= 4444444444 X=********<<++OOOO++@OO@@####&&#&&&**=*====;#XX::::::::=..",
"..X:::::::::<<<<<<<,,,,,,>>>>>>:::::;;;======**XX::::::::= 4444444444 X*********<<+OOO+++@OO@@@##@###&&&&&***====;#XX::::::::=..",
"..X:::::::::<<<<,<,,,,>>>>>:::;::;;;=;=====****XX::::::::= 4444444444 X*********<<OOO++++OO@@@#####&&&&******====;#XX::::::::=..",
"..X:::;13:::<<<,,,,,>,>>>>::::;:;;;;====******&XX:::;13::= 4444444444 X*&&#:,***<<OOO++@OO@@####&&&&&&**======;;;;#XX:::;13::=..",
"..X:::*>1:::<<<<,,,>,,>>>>:>::::;=;;====*=*****XX:::*>1::= 4444444444 X*&#o*;***<<Oo++@OO@@@####&#&&&&&***===;;=;;#XX:::*>1::=..",
"..X::;#*=:::<<<,,,,>,>>>::::::;;;=;=====******&XX::;=*=::= 4444444444 X**#oo#**=<<o+++OO@@#@####&&&&&****======;;;#XX::;=*=::=..",
"..X:;;=*;:::<<,,,>>>>>>::::;;;;;;====*=****&&&&XX:;;==;::= 4444444444 X**###**==<<++@OO@@@###&#&&&&***=====;=;;;;:#XX:;;==;::=..",
"..X::;;;::::<<,,>,,>>>::>::::;=;;===**=****&*&&XX::;;;:::= 4444444444 X******==;<<++OO@@@####&#&&&&****===;;=;;;::*XX::;;;:::=..",
"..X:::::::::<<<<<<<<<<<<<<<<<<<<<<<<<<<<<<<<<>>@X::::::::= 4444444444 X*****==;;<<<<<<<<<<<<<<<<<<<<<<<<<<<<<<<<<>>@X::::::::=..",
"..X:::::::::<<<<<<<<<<<<<<<<<<<<<<<<<<<<<<<<<>>=@::::::::= 4444444444 X****==;;:<<<<<<<<<<<<<<<<<<<<<<<<<<<<<<<<<>>=@::::::::=..",
"..X::::::::::::::::::::::::::::::::::::::::::::::::::::::= 4444444444 X***==;;:::::::::::::::::::::::::::::::::::::::::::::::=..",
"..X::::::::::::::::::::::::::::::::::::::::::::::::::::::= 4444444444 X**==;;::::::::::::::::::::::::::::::::::::::::::::::::=..",
"..X::::::::::::::::::::::::::::::::::::::::::::::::::::::= 4444444444 X*==;;:::::::::::::::::::::::::::::::::::::::::::::::::=..",
"..X::::::::::::;13::::::::::;13:::::::::::;13::::::::::::= 4444444444 X==;;::::::::;13::::::::::;13:::::::::::;13::::::::::::=..",
"..X::::::::::::*>1::::::::::*>1:::::::::::*>1::::::::::::= 4444444444 X=;;:::::::::*>1::::::::::*>1:::::::::::*>1::::::::::::=..",
"..X:::::::::::;#*=:::::::::;#*=::::::::::;#*=::::::::::::= 4444444444 X;;:::::::::;#*=:::::::::;#*=::::::::::;#*=::::::::::::=..",
"..X;:::::::::;;=*;::::::::;;=*;:::::::::;;=*;::::::::::::= 4444444444 X;:::::::::;;=*;::::::::;;=*;:::::::::;;=*;::::::::::::=..",
"$$X:::::::::::;;;::::::::::;;;:::::::::::;;;:::::::::::::= 4444444444 X:::::::::::;;;::::::::::;;;:::::::::::;;;:::::::::::::=$$",
"$$X::::::::::::::::::::::::::::::::::::::::::::::::::::::* 4444444444 X::::::::::::::::::::::::::::::::::::::::::::::::::::::*$$",
"%%%%%%%%%%%%%%%%%%%%%%%%%%%%%%%%%%%%%%%%%%%%%%%%%%%%%%%%$$.4444444444 .$$%%%%%%%%%%%%%%%%%%%%%%%%%%%%%%%%%%%%%%%%%%%%%%%%%%%%%%%",
"%%%%%%%%%%%%%%%%%%%%%%%%%%%%%%%%%%%%%%%%%%%%%%%%%%%%%%%%$$.4444444444.$$%%%%%%%%%%%%%%%%%%%%%%%%%%%%%%%%%%%%%%%%%%%%%%%%%%%%%%%%"
};
