/* XPM */
static char *result[] = {
/* columns rows colors chars-per-pixel */
"128 128 23 1 ",
"  c #000001",
". c gray23",
"X c #005B5B",
"o c #006F6F",
"O c #007373",
"+ c #007777",
"@ c #007B7B",
"# c #007F7F",
"$ c #4B4B4B",
"% c gray34",
"& c #008787",
"* c #008F8F",
"= c #009B9B",
"- c #009F9F",
"; c #00A7A7",
": c #23B3B3",
"> c #23B7B7",
", c #4BC3C3",
"< c #77CBCB",
"1 c #9FDFDF",
"2 c #BBEBEB",
"3 c #DBF7F7",
"4 c None",
/* pixels */
"...................................444444444444444444444444444444444444444444444444444444444....................................",
"...................................444444444444444444444444444444444444444444444444444444444....................................",
"oooooooooooooooooooooooooooooooooo 444444444444444444444444444444444444444444444444444444444 Ooooooooooooooooooooooooooooooooooo",
"++++++++++++++++++++++++++++++++++ 444444444444444444444444444444444444444444444444444444444 O++++++++++++++++++++++++++++++++++",
"@@@@@@@@@@@@@@@@@@@@@@@@@@@@@@@@@+ 444444444444444444444444444444444444444444444444444444444 O@@@@@@@@@@@@@@@@@@@@@@@@@@@@@@@@@@",
"&&&&&#:,&&&&&&&&&&#:,&&&&&&&&&&&&@ 444444444444444444444444444444444444444444444444444444444 O&&&&&&&&&&&&&#:,&&&&&&&&&&#:,&&&&&",
"&&&&#+*;&&&&&&&&&#+*;&&&&&&&&&&&&@ 444444444444444444444444444444444444444444444444444444444 O&&&&&&&&&&&&#+*;&&&&&&&&&#+*;&&&&&",
"===*#+o#========*#+o#=========***& 444444444444444444444444444444444444444444444444444444444 O===========*#+o#========*#+o#=====",
";;;*###*;;;;;;;;*###*;;;;;;;;****& 444444444444444444444444444444444444444444444444444444444 O;;;;;;;;;;;*###*;;;;;;;;*###*;;;;;",
";;;=***=;;;;;;;;=***=;;;;;;;*****& 444444444444444444444444444444444444444444444444444444444 O;;;;;;;;;;;=***=;;;;;;;;=***=;;;;;",
"XXXXXXXXXXXXXXXXXXXXXXXXO==******* 444444444444444444444444444444444444444444444444444444444 O:::::::::=oXXXXXXXXXXXXXXXXXXXXXXX",
"XXXXXXXXXXXXXXXXXXXXXXXXO=******** 444444444444444444444444444444444444444444444444444444444 O:::::::::,=XXXXXXXXXXXXXXXXXXXXXXX",
"##@@@OO+++oOOO++O++@@@@XO********* 444444444444444444444444444444444444444444444444444444444 O:::::::::,,#####*********======:::",
"#@@@OO+++oOOO++O++@@@@@XO********* 444444444444444444444444444444444444444444444444444444444 O:::::::::,,;=;::::>::>>>,,>,,,,<<<",
"@@@OO@++oOOOOOO++@++@@@XO*&&#:,*** 444444444444444444444444444444444444444444444444444444444 O:::;13:::,,;;;;;::::>>>>>>,,,,,<<<",
"@@OO+++ooOOOO++++@+@@@@XO*&#o*;*** 444444444444444444444444444444444444444444444444444444444 @:::*>1:::,,;;::::::>>>,>,,,,<<<<<<",
"@OO@++oOOO+++++@@@@@##@XO**#oo#*** 444444444444444444444444444444444444444444444444444444444 @::;#*=:::,,::::>:>>>>,,>,,,<<<<<1<",
"OO@++OOOOO+O++@++@@@##@XO**###**== 444444444444444444444444444444444444444444444444444444444 O:;;=*;:::,,:;::::>>>>,>,,,,,<<<<<<",
"O++++OOOOO++++++@@@####XO******=== 444444444444444444444444444444444444444444444444444444444 O::;;;::::,,:;:::>>>>>,,,,<,<<<<111",
"@+++OOO+O++++@@@@####&#XO*****==;= 444444444444444444444444444444444444444444444444444444444 O:::::::::,,:>>>>>>,,,,,,<<<<<11111",
"++OOOO++O++@+@@@@###&&#XO****==;;= 444444444444444444444444444444444444444444444444444444444 O:::::::::,,:::>>>>,>,,,,<<<<1<<111",
"++OOOOOO++@++@@@@#####&XO***==;;:= 444444444444444444444444444444444444444444444444444444444 O:::::::::,,::>>>>>,,,,,,<<<<1<1111",
"+OOOOO++++@+@@##@###&&&XO**==;;::= 444444444444444444444444444444444444444444444444444444444 O:::::::::,,>>>>,>,,,,<<<<<<1111121",
"OOO+++++@@@@@@###&&&&&&XO*==;;:::= 444444444444444444444444444444444444444444444444444444444 O:::::::::,,>>>,,>,,,,<<<<1<1111221",
"OOO+O++@++@@@####&#&&&&XO==;;::::= 444444444444444444444444444444444444444444444444444444444 O:::::::::,,>>>>>,,,,,<<<<<<1111112",
"OOO++++++@@@#####&&&&&&X@=;;::::;= 444444444444444444444444444444444444444444444444444444444 O:::::::::,,>>>,,,,<,<<<<1111111222",
"++++++@@@@@###&#&&&&***X@;;::::;-= 444444444444444444444444444444444444444444444444444444444 O:::::::::,,,,,,,,<<<<<1<1111222222",
"+O++@+@@@####&&#&&&&*=*XO;::::;-;= 444444444444444444444444444444444444444444444444444444444 O:::::::::,,,>,,,,,<<<1<<1111212222",
"O+++++@@@##@###&&&&&***XO::::;-;:= 444444444444444444444444444444444444444444444444444444444 O:::::::::,,,,,,,,<<<<1<11111222221",
"+++@@@@@#####&&&&******XO:::;-;::= 444444444444444444444444444444444444444444444444444444444 O:::::::::,,,,,<<<<<111111222222211",
"+@@@@@####&&&&&&**====*XO::;;13::= 444444444444444444444444444444444444444444444444444444444 O:::;13:::,,,,,<<<<1<<1112212222221",
"@++@@@####&#&&&&&***===Xo:;-*>1::= 444444444444444444444444444444444444444444444444444444444 O:::*>1:::,,,,,<<<<<<11111122211111",
"@+@@@@####&&&&&****====Xo;-;#*=::= 444444444444444444444444444444444444444444444444444444444 O::;#*=:::,,<,<<<<1111121222221111<",
"@@@##@#&&&&&&***=====;=Xo--;=*;::= 444444444444444444444444444444444444444444444444444444444 O:;;=*;:::,,<<<<1<1111221222222111<",
"@@@##@&&#&&&&****===;;=Xo-;;;;:::= 444444444444444444444444444444444444444444444444444444444 O::;;;::::,,<<<1<<11112122221111<<<",
"@@######&&&&******====;Xo;:::::::= 444444444444444444444444444444444444444444444444444444444 O:::::::::,,<<<1<1111122222111<<1<<",
"####&#&&&&***=======;;;Xo::::::::= 444444444444444444444444444444444444444444444444444444444 O:::::::::,,<1111112222222222111<<<",
"###&&#&&&*****===;;;;;;Xo::::::::= 444444444444444444444444444444444444444444444444444444444 O:::::::::,,1<<111221222111111<<<<,",
"###&#&&&&*=**====;=;;;;Xo::::::::= 444444444444444444444444444444444444444444444444444444444 O:::::::::,,1<1111112222111<<1<<,,,",
"###&&&&*&*=*=====;;;;;;Xo::::::::= 444444444444444444444444444444444444444444444444444444444 O:::::::::,,111121222222121<1<<,<<,",
"&&&&&&*****===;;;;;;:::Xo::::::::= 444444444444444444444444444444444444444444444444444444444 O:::::::::,,111221222211111<<<<,<,,",
"&#&&&&*=**=*=;;=;;;;:::Xo::::::::= 444444444444444444444444444444444444444444444444444444444 @:::::::::,,111112222121<<<<<<,,,,,",
"#&&&&&***======;;;;;:::Xo::::::::= 444444444444444444444444444444444444444444444444444444444 @:::::::::,,111222221121<1<<,<,,,,>",
"&&&*****===;=;;;;::::::Xo::::::::= 444444444444444444444444444444444444444444444444444444444 O:::::::::,<2222222111111<<<<<,,,,>",
"&&**=*====;;=;;;::::>>:Xo::::::::= 444444444444444444444444444444444444444444444444444444444 O:::::::::<1212222121<1<<<<,,,,,,,>",
"&&&***====;=;;;;;:::>>:Xo::::::::= 444444444444444444444444444444444444444444444444444444444 O:::::::::11222221121<1<<,,,,,,>>>>",
"******====;;;;:;::::>>>Xo:::;13::= 444444444444444444444444444444444444444444444444444444444 O:::;13:::112222111111<<,<<,,,,>,>>",
"*======;;;;;;::::>>>>,>XX:::*>1::= 444444444444444444444444444444444444444444444444444444444 o:::*>1:::2222222111<<<<,<,,,,,>>>>",
"***===;;=;;;;::::>>:,>>XX::;#*=::= 444444444444444444444444444444444444444444444444444444444 o::;#*=:::22211111<<<<,,,,,,>>>>:::",
"**======;;;;;::::>>>,>,XX:;;=*;::= 444444444444444444444444444444444444444444444444444444444 o:;;=*;:::2221111<1<<,<<,,,>>>:>>::",
"====;=;;;;::::>>>>,,,,,XX::;;;:::= 444444444444444444444444444444444444444444444444444444444 o::;;;::::2222211<<<<<<,,,,,,>>>>::",
"===;;=;;;:::::>>>>>>,,,XX::::::::= 444444444444444444444444444444444444444444444444444444444 o:::::::::221111<<<<,,,,,>,>>>::::;",
"*====;;;;;:::::>>>>,,,,XX::::::::= 444444444444444444444444444444444444444444444444444444444 o:::::::::221<<1<<,<,,,,>>,:>>:::;;",
"===;;;;:;:::>>>>,,,,,<,XX::::::::= 444444444444444444444444444444444444444444444444444444444 o:::::::::22111<<,<<,,,,>,>>>>::::;",
";;;;;;:::::>>>,>,,,,<<,XX::::::::= 444444444444444444444444444444444444444444444444444444444 o:::::::::111<<<<,<,,,,>>>>::::;:;;",
";=;;;;;:::>:>,>>,,,,<,<XX::::::::= 444444444444444444444444444444444444444444444444444444444 o:::::::::1<1<<,,,,,,>>>:>>:::;;;;;",
";;;;;;:::>>:>,>,,,,,<<<XX::::::::= 444444444444444444444444444444444444444444444444444444444 o:::::::::<<<<,<<,,,>>,>:>>::::;;;=",
";;;:::::>>>>>,,,,<<<<<<XX::::::::= 444444444444444444444444444444444444444444444444444444444 o:::::::::<<,<,<,,,,,,>>::::::;;;;=",
";;;:::>>:>,>>,,,<<,<<1<XX::::::::= 444444444444444444444444444444444444444444444444444444444 o:::::::::<<,,,,,,>,>:>>:::;;;;;===",
";;;:::>>:>,>,,,,,,<<<<<XX::::::::= 444444444444444444444444444444444444444444444444444444444 o:::::::::<<,,,,,>>,>:>::::;;;;=;;=",
":;::::>>>,,,,,<,<<<<111XX::::::::= 444444444444444444444444444444444444444444444444444444444 o:::::::::<<<,,,,>>>>>:::::;;;;;;==",
":::>>:>,>,,,,<<,<<11121XX::::::::= 444444444444444444444444444444444444444444444444444444444 o:::::::::<<,,,,,>:>>:::;:;;;;=====",
":::>>:>>>,,,,,,<<1<<111XX:::;13::= 444444444444444444444444444444444444444444444444444444444 o:::;13:::<<,,>>>>:>:::;;;;;=;====*",
":>:>>>>,,,,,,<<<<111111XX:::*>1::= 444444444444444444444444444444444444444444444444444444444 X:::*>1:::<<,,,,>>>:::::;;;=;;===**",
":>>>,,,,,,<<<<<11122222XX::;#*=::= 444444444444444444444444444444444444444444444444444444444 X::;#*=:::<<,>>>>:>::;:;;;;=;=====*",
">:>>>>,,,,<,<<1<<111222XX:;;=*;::= 444444444444444444444444444444444444444444444444444444444 X:;;=*;:::<<>>:>>:::;;;;;=====*****",
">:>,,,,,,,<<<<<11112222XX::;;;:::= 444444444444444444444444444444444444444444444444444444444 X::;;;::::<<,>:>>:::;;;;=;;===****&",
">>>,,,,<,<<<<1112222221XX::::::::= 444444444444444444444444444444444444444444444444444444444 X:::::::::<<>>::::;:;;;;=;======**&",
",>>,,,,<,<<1<1111222221XX::::::::= 444444444444444444444444444444444444444444444444444444444 X:::::::::<<>>:::;;;;;;=====*****&&",
",>,,,,,<<<1<11111222111XX::::::::= 444444444444444444444444444444444444444444444444444444444 X:::::::::<<>>:::;;;;=;====***&&&&&",
",,,,<,<<<<1<12222221221XX::::::::= 444444444444444444444444444444444444444444444444444444444 X:::::::::<<:::::;;;;=;=*====**&&&#",
",,,<<,<<1<1111222222211XX::::::::= 444444444444444444444444444444444444444444444444444444444 X:::::::::<<::;;;;;;=====*****&&&&#",
",,,,,<<1<<1112222211111XX::::::::= 444444444444444444444444444444444444444444444444444444444 X:::::::::<<:;;;;;=;====***&&&&&###",
",<,<<<<111112222121111<XX::::::::= 444444444444444444444444444444444444444444444444444444444 X:::::::::<<::;;;;;;===****&&&&#&&#",
"<<,<<11122222221221111<XX::::::::= 444444444444444444444444444444444444444444444444444444444 X:::::::::<<:;;;;=======*&*&&&&#&##",
"<,<<1<<111222221211111<XX::::::::= 444444444444444444444444444444444444444444444444444444444 X:::::::::<<;;;====******&&&&&#####",
"<<<<111112222121111<<<<XX::::::::= 444444444444444444444444444444444444444444444444444444444 X:::::::::<<;;=;;===****&&&&#&####@",
"<<<112222222122111<<1<<XX::::::::= 444444444444444444444444444444444444444444444444444444444 X:::::::::<<;;=;=====***&&&&#&###@@",
"<1<11112222212111111<<<XX:::;13::= 444444444444444444444444444444444444444444444444444444444 X:::;13:::<<======****&&&&&####@#@@",
"<<11111222111111<<<<<<,XX:::*>1::= 444444444444444444444444444444444444444444444444444444444 X:::*>1:::<<;;===***&&&&&#&####@@@+",
"111222222122111<<1<<<,,XX::;#*=::= 444444444444444444444444444444444444444444444444444444444 X::;#*=:::<<;======**&&&&&&####@@@+",
"11112222212111111<<<<<,XX:;;=*;::= 444444444444444444444444444444444444444444444444444444444 X:;;=*;:::<<==******&&&&#####@@@+@+",
"2112222211111<1<<<<,,,,XX::;;;:::= 444444444444444444444444444444444444444444444444444444444 X::;;;::::<<==***&&&&&###@##@@@++@+",
"212222121111<<1<<<,,,,,XX::::::::= 444444444444444444444444444444444444444444444444444444444 X:::::::::<<==*=**&&&#&&####@@@+@++",
"12222222111111<<<<<,,,,XX::::::::= 444444444444444444444444444444444444444444444444444444444 X:::::::::<<*****&&&&#&###@@@@@++++",
"222221111111<<<<,<,,,,>XX::::::::= 444444444444444444444444444444444444444444444444444444444 X:::::::::<<**&&&&&######@@@++++++O",
"222111111<<<<<<,,,,,>>>XX::::::::= 444444444444444444444444444444444444444444444444444444444 X:::::::::<<=*&&&&#&&###@@@++@++O+O",
"221221111<1<<<<<,,,>,,>XX::::::::= 444444444444444444444444444444444444444444444444444444444 X:::::::::<<**&&&&&&###@@@@@@+++++O",
"221211111<<<<<<,,,,>,>>XX::::::::= 444444444444444444444444444444444444444444444444444444444 X:::::::::<<*&&&&###@#@@@+@++++OOOO",
"111111<1<<<<,,,,,>>>>>>XX::::::::= 444444444444444444444444444444444444444444444444444444444 X:::::::::<<&&&#&###@@@@++@++OOOOO+",
"22111<<1<<<<,,,,>,,>>>:XX::::::::= 444444444444444444444444444444444444444444444444444444444 X:::::::::<<&&#&&###@@@@@@++O++OOOO",
"2111111<<<<<,,,,,,>>>>>XX::::::::= 444444444444444444444444444444444444444444444444444444444 X:::::::::<<&&#&####@@@@++++O+OOOO+",
"111<1<<<<,<,,,,>>>>>:::XX::::::::= 444444444444444444444444444444444444444444444444444444444 X:::::::::<<######@@@+++++OOOOOO+++",
"11<<1<<<,,,,,>,>>>>::::XX::::::::= 444444444444444444444444444444444444444444444444444444444 X:::::::::<<&&@##@@@@+@++O++OOOO++@",
"11<1<<<<<,,,>,,>>>>:>::XX:::;13::= 444444444444444444444444444444444444444444444444444444444 X:::;13:::<<&#@##@@@@++++++OOOO++@O",
"11<<<<,<,,,,>,>>>::::::XX:::*>1::= 444444444444444444444444444444444444444444444444444444444 X:::*>1:::<<##@@@@+@++++OOOOO++++OO",
"<<<<<,,,,,>>>>>>::::;;;XX::;#*=::= 444444444444444444444444444444444444444444444444444444444 X:::#*=::;<<##@@@++@++O+OOOO++++OO@",
"1<<<<,,,,>,,>>>::>::::;XX:;;=*;::= 444444444444444444444444444444444444444444444444444444444 X::::;;:;;<<##@@@@@++O++OOOO++@OO@@",
"<<<<<,,,,>,>>>::::::;;;XX::;;;:::= 444444444444444444444444444444444444444444444444444444444 X::::::;;=<<@@@@@++++O+OOOO+++OO@@@",
"<<,,,,,,>>>>>:>:::;;;;;XX::::::::= 444444444444444444444444444444444444444444444444444444444 X:::::;;==<<@@+++++OOOOOO++++OO@@##",
"<,,,,,>,>>>>::>:::;;=;=XX::::::::= 444444444444444444444444444444444444444444444444444444444 X::::;;==*<<@@+@++O++OOOO++@OO@@@##",
"<<,,,,,,>>>::::::;;;;;=XX::::::::= 444444444444444444444444444444444444444444444444444444444 X:::;;==**<<@@++++++OOOO++@OO@@@@##",
"<,,,,>>>>>>>:::;;:;;;==XX::::::::= 444444444444444444444444444444444444444444444444444444444 X::;;==***<<+++++OOOOO++++OO@@@#@##",
",,,>>>>>>:::;::;;==;===XX::::::::= 444444444444444444444444444444444444444444444444444444444 X:;;==****<<@++O+OOO++++@OO@@@###&&",
",,>,,>>>::::;:;;;;;===*XX::::::::= 444444444444444444444444444444444444444444444444444444444 X;;==*****<<+++++OOOO++@OO@@@###&&#",
",,>,>>>>>:::;:;;;;=====XX::::::::= 444444444444444444444444444444444444444444444444444444444 X;==******<<++OOOOO++++OO@@@######&",
",>>>>>::::::;;;=====*=*XX::::::::= 444444444444444444444444444444444444444444444444444444444 X==*******<<OOOOOO++++OO@@@###&#&&&",
",>>>>::::;:;;;;====**=*XX::::::::= 444444444444444444444444444444444444444444444444444444444 X=********<<++OOOO++@OO@@####&&#&&&",
",>>>>>>:::::;;;======**XX::::::::= 444444444444444444444444444444444444444444444444444444444 X*********<<+OOO+++@OO@@@##@###&&&&",
">>>:::;::;;;=;=====****XX::::::::= 444444444444444444444444444444444444444444444444444444444 X*********<<OOO++++OO@@@#####&&&&**",
">>::::;:;;;;====******&XX:::;13::= 444444444444444444444444444444444444444444444444444444444 X*&&#:,***<<OOO++@OO@@####&&&&&&**=",
">>:>::::;=;;====*=*****XX:::*>1::= 444444444444444444444444444444444444444444444444444444444 X*&#o*;***<<Oo++@OO@@@####&#&&&&&**",
"::::::;;;=;=====******&XX::;=*=::= 444444444444444444444444444444444444444444444444444444444 X**#oo#**=<<o+++OO@@#@####&&&&&****",
":::;;;;;;====*=****&&&&XX:;;==;::= 444444444444444444444444444444444444444444444444444444444 X**###**==<<++@OO@@@###&#&&&&***===",
">::::;=;;===**=****&*&&XX::;;;:::= 444444444444444444444444444444444444444444444444444444444 X******==;<<++OO@@@####&#&&&&****==",
"<<<<<<<<<<<<<<<<<<<<<>>@X::::::::= 444444444444444444444444444444444444444444444444444444444 X*****==;;<<<<<<<<<<<<<<<<<<<<<<<<<",
"<<<<<<<<<<<<<<<<<<<<<>>=@::::::::= 444444444444444444444444444444444444444444444444444444444 X****==;;:<<<<<<<<<<<<<<<<<<<<<<<<<",
":::::::::::::::::::::::::::::::::= 444444444444444444444444444444444444444444444444444444444 X***==;;:::::::::::::::::::::::::::",
":::::::::::::::::::::::::::::::::= 444444444444444444444444444444444444444444444444444444444 X**==;;::::::::::::::::::::::::::::",
":::::::::::::::::::::::::::::::::= 444444444444444444444444444444444444444444444444444444444 X*==;;:::::::::::::::::::::::::::::",
"::::;13:::::::::::;13::::::::::::= 444444444444444444444444444444444444444444444444444444444 X==;;::::::::;13::::::::::;13::::::",
"::::*>1:::::::::::*>1::::::::::::= 444444444444444444444444444444444444444444444444444444444 X=;;:::::::::*>1::::::::::*>1::::::",
":::;#*=::::::::::;#*=::::::::::::= 444444444444444444444444444444444444444444444444444444444 X;;:::::::::;#*=:::::::::;#*=::::::",
"::;;=*;:::::::::;;=*;::::::::::::= 444444444444444444444444444444444444444444444444444444444 X;:::::::::;;=*;::::::::;;=*;::::::",
":::;;;:::::::::::;;;:::::::::::::= 444444444444444444444444444444444444444444444444444444444 X:::::::::::;;;::::::::::;;;:::::::",
":::::::::::::::::::::::::::::::::* 444444444444444444444444444444444444444444444444444444444 X::::::::::::::::::::::::::::::::::",
"%%%%%%%%%%%%%%%%%%%%%%%%%%%%%%%%$$.444444444444444444444444444444444444444444444444444444444 .$$%%%%%%%%%%%%%%%%%%%%%%%%%%%%%%%%",
"%%%%%%%%%%%%%%%%%%%%%%%%%%%%%%%%$$.444444444444444444444444444444444444444444444444444444444.$$%%%%%%%%%%%%%%%%%%%%%%%%%%%%%%%%%"
};
