/* XPM */
static char *result[] = {
/* columns rows colors chars-per-pixel */
"128 128 23 1 ",
"  c #000001",
". c gray23",
"X c #005B5B",
"o c #006F6F",
"O c #007373",
"+ c #007777",
"@ c #007B7B",
"# c #007F7F",
"$ c #4B4B4B",
"% c gray34",
"& c #008787",
"* c #008F8F",
"= c #009B9B",
"- c #009F9F",
"; c #00A7A7",
": c #23B3B3",
"> c #23B7B7",
", c #4BC3C3",
"< c #77CBCB",
"1 c #9FDFDF",
"2 c #BBEBEB",
"3 c #DBF7F7",
"4 c None",
/* pixels */
"..........................4444444444444444444444444444444444444444444444444444444444444444444444444444..........................",
"..........................4444444444444444444444444444444444444444444444444444444444444444444444444444..........................",
"ooooooooooooooooooooooooo 4444444444444444444444444444444444444444444444444444444444444444444444444444 Ooooooooooooooooooooooooo",
"+++++++++++++++++++++++++ 4444444444444444444444444444444444444444444444444444444444444444444444444444 O++++++++++++++++++++++++",
"@@@@@@@@@@@@@@@@@@@@@@@@+ 4444444444444444444444444444444444444444444444444444444444444444444444444444 O@@@@@@@@@@@@@@@@@@@@@@@@",
"&&&&&&&&&#:,&&&&&&&&&&&&@ 4444444444444444444444444444444444444444444444444444444444444444444444444444 O&&&&&&&&&&&&&#:,&&&&&&&&",
"&&&&&&&&#+*;&&&&&&&&&&&&@ 4444444444444444444444444444444444444444444444444444444444444444444444444444 O&&&&&&&&&&&&#+*;&&&&&&&&",
"=======*#+o#=========***& 4444444444444444444444444444444444444444444444444444444444444444444444444444 O===========*#+o#========",
";;;;;;;*###*;;;;;;;;****& 4444444444444444444444444444444444444444444444444444444444444444444444444444 O;;;;;;;;;;;*###*;;;;;;;;",
";;;;;;;=***=;;;;;;;*****& 4444444444444444444444444444444444444444444444444444444444444444444444444444 O;;;;;;;;;;;=***=;;;;;;;;",
"XXXXXXXXXXXXXXXO==******* 4444444444444444444444444444444444444444444444444444444444444444444444444444 O:::::::::=oXXXXXXXXXXXXX",
"XXXXXXXXXXXXXXXO=******** 4444444444444444444444444444444444444444444444444444444444444444444444444444 O:::::::::,=XXXXXXXXXXXXX",
"+oOOO++O++@@@@XO********* 4444444444444444444444444444444444444444444444444444444444444444444444444444 O:::::::::,,#####********",
"oOOO++O++@@@@@XO********* 4444444444444444444444444444444444444444444444444444444444444444444444444444 O:::::::::,,;=;::::>::>>>",
"OOOOOO++@++@@@XO*&&#:,*** 4444444444444444444444444444444444444444444444444444444444444444444444444444 O:::;13:::,,;;;;;::::>>>>",
"OOOO++++@+@@@@XO*&#o*;*** 4444444444444444444444444444444444444444444444444444444444444444444444444444 @:::*>1:::,,;;::::::>>>,>",
"O+++++@@@@@##@XO**#oo#*** 4444444444444444444444444444444444444444444444444444444444444444444444444444 @::;#*=:::,,::::>:>>>>,,>",
"O+O++@++@@@##@XO**###**== 4444444444444444444444444444444444444444444444444444444444444444444444444444 O:;;=*;:::,,:;::::>>>>,>,",
"O++++++@@@####XO******=== 4444444444444444444444444444444444444444444444444444444444444444444444444444 O::;;;::::,,:;:::>>>>>,,,",
"++++@@@@####&#XO*****==;= 4444444444444444444444444444444444444444444444444444444444444444444444444444 O:::::::::,,:>>>>>>,,,,,,",
"++@+@@@@###&&#XO****==;;= 4444444444444444444444444444444444444444444444444444444444444444444444444444 O:::::::::,,:::>>>>,>,,,,",
"+@++@@@@#####&XO***==;;:= 4444444444444444444444444444444444444444444444444444444444444444444444444444 O:::::::::,,::>>>>>,,,,,,",
"+@+@@##@###&&&XO**==;;::= 4444444444444444444444444444444444444444444444444444444444444444444444444444 O:::::::::,,>>>>,>,,,,<<<",
"@@@@@###&&&&&&XO*==;;:::= 4444444444444444444444444444444444444444444444444444444444444444444444444444 O:::::::::,,>>>,,>,,,,<<<",
"+@@@####&#&&&&XO==;;::::= 4444444444444444444444444444444444444444444444444444444444444444444444444444 O:::::::::,,>>>>>,,,,,<<<",
"@@@#####&&&&&&X@=;;::::;= 4444444444444444444444444444444444444444444444444444444444444444444444444444 O:::::::::,,>>>,,,,<,<<<<",
"@@###&#&&&&***X@;;::::;-= 4444444444444444444444444444444444444444444444444444444444444444444444444444 O:::::::::,,,,,,,,<<<<<1<",
"####&&#&&&&*=*XO;::::;-;= 4444444444444444444444444444444444444444444444444444444444444444444444444444 O:::::::::,,,>,,,,,<<<1<<",
"##@###&&&&&***XO::::;-;:= 4444444444444444444444444444444444444444444444444444444444444444444444444444 O:::::::::,,,,,,,,<<<<1<1",
"####&&&&******XO:::;-;::= 4444444444444444444444444444444444444444444444444444444444444444444444444444 O:::::::::,,,,,<<<<<11111",
"#&&&&&&**====*XO::;;13::= 4444444444444444444444444444444444444444444444444444444444444444444444444444 O:::;13:::,,,,,<<<<1<<111",
"#&#&&&&&***===Xo:;-*>1::= 4444444444444444444444444444444444444444444444444444444444444444444444444444 O:::*>1:::,,,,,<<<<<<1111",
"#&&&&&****====Xo;-;#*=::= 4444444444444444444444444444444444444444444444444444444444444444444444444444 O::;#*=:::,,<,<<<<1111121",
"&&&&***=====;=Xo--;=*;::= 4444444444444444444444444444444444444444444444444444444444444444444444444444 O:;;=*;:::,,<<<<1<1111221",
"&&&&****===;;=Xo-;;;;:::= 4444444444444444444444444444444444444444444444444444444444444444444444444444 O::;;;::::,,<<<1<<1111212",
"&&&******====;Xo;:::::::= 4444444444444444444444444444444444444444444444444444444444444444444444444444 O:::::::::,,<<<1<11111222",
"&***=======;;;Xo::::::::= 4444444444444444444444444444444444444444444444444444444444444444444444444444 O:::::::::,,<111111222222",
"*****===;;;;;;Xo::::::::= 4444444444444444444444444444444444444444444444444444444444444444444444444444 O:::::::::,,1<<1112212221",
"*=**====;=;;;;Xo::::::::= 4444444444444444444444444444444444444444444444444444444444444444444444444444 O:::::::::,,1<11111122221",
"*=*=====;;;;;;Xo::::::::= 4444444444444444444444444444444444444444444444444444444444444444444444444444 O:::::::::,,1111212222221",
"**===;;;;;;:::Xo::::::::= 4444444444444444444444444444444444444444444444444444444444444444444444444444 O:::::::::,,1112212222111",
"*=*=;;=;;;;:::Xo::::::::= 4444444444444444444444444444444444444444444444444444444444444444444444444444 @:::::::::,,111112222121<",
"======;;;;;:::Xo::::::::= 4444444444444444444444444444444444444444444444444444444444444444444444444444 @:::::::::,,111222221121<",
"==;=;;;;::::::Xo::::::::= 4444444444444444444444444444444444444444444444444444444444444444444444444444 O:::::::::,<2222222111111",
"=;;=;;;::::>>:Xo::::::::= 4444444444444444444444444444444444444444444444444444444444444444444444444444 O:::::::::<1212222121<1<<",
"=;=;;;;;:::>>:Xo::::::::= 4444444444444444444444444444444444444444444444444444444444444444444444444444 O:::::::::11222221121<1<<",
"=;;;;:;::::>>>Xo:::;13::= 4444444444444444444444444444444444444444444444444444444444444444444444444444 O:::;13:::112222111111<<,",
";;;;::::>>>>,>XX:::*>1::= 4444444444444444444444444444444444444444444444444444444444444444444444444444 o:::*>1:::2222222111<<<<,",
";;;;::::>>:,>>XX::;#*=::= 4444444444444444444444444444444444444444444444444444444444444444444444444444 o::;#*=:::22211111<<<<,,,",
";;;;::::>>>,>,XX:;;=*;::= 4444444444444444444444444444444444444444444444444444444444444444444444444444 o:;;=*;:::2221111<1<<,<<,",
";::::>>>>,,,,,XX::;;;:::= 4444444444444444444444444444444444444444444444444444444444444444444444444444 o::;;;::::2222211<<<<<<,,",
":::::>>>>>>,,,XX::::::::= 4444444444444444444444444444444444444444444444444444444444444444444444444444 o:::::::::221111<<<<,,,,,",
";:::::>>>>,,,,XX::::::::= 4444444444444444444444444444444444444444444444444444444444444444444444444444 o:::::::::221<<1<<,<,,,,>",
":::>>>>,,,,,<,XX::::::::= 4444444444444444444444444444444444444444444444444444444444444444444444444444 o:::::::::22111<<,<<,,,,>",
"::>>>,>,,,,<<,XX::::::::= 4444444444444444444444444444444444444444444444444444444444444444444444444444 o:::::::::111<<<<,<,,,,>>",
":>:>,>>,,,,<,<XX::::::::= 4444444444444444444444444444444444444444444444444444444444444444444444444444 o:::::::::1<1<<,,,,,,>>>:",
">>:>,>,,,,,<<<XX::::::::= 4444444444444444444444444444444444444444444444444444444444444444444444444444 o:::::::::<<<<,<<,,,>>,>:",
">>>>,,,,<<<<<<XX::::::::= 4444444444444444444444444444444444444444444444444444444444444444444444444444 o:::::::::<<,<,<,,,,,,>>:",
">,>>,,,<<,<<1<XX::::::::= 4444444444444444444444444444444444444444444444444444444444444444444444444444 o:::::::::<<,,,,,,>,>:>>:",
">,>,,,,,,<<<<<XX::::::::= 4444444444444444444444444444444444444444444444444444444444444444444444444444 o:::::::::<<,,,,,>>,>:>::",
",,,,,<,<<<<111XX::::::::= 4444444444444444444444444444444444444444444444444444444444444444444444444444 o:::::::::<<<,,,,>>>>>:::",
",,,,<<,<<11121XX::::::::= 4444444444444444444444444444444444444444444444444444444444444444444444444444 o:::::::::<<,,,,,>:>>:::;",
",,,,,,<<1<<111XX:::;13::= 4444444444444444444444444444444444444444444444444444444444444444444444444444 o:::;13:::<<,,>>>>:>:::;;",
",,,,<<<<111111XX:::*>1::= 4444444444444444444444444444444444444444444444444444444444444444444444444444 X:::*>1:::<<,,,,>>>:::::;",
",<<<<<11122222XX::;#*=::= 4444444444444444444444444444444444444444444444444444444444444444444444444444 X::;#*=:::<<,>>>>:>::;:;;",
",<,<<1<<111222XX:;;=*;::= 4444444444444444444444444444444444444444444444444444444444444444444444444444 X:;;=*;:::<<>>:>>:::;;;;;",
",<<<<<11112222XX::;;;:::= 4444444444444444444444444444444444444444444444444444444444444444444444444444 X::;;;::::<<,>:>>:::;;;;=",
"<<<<1112222221XX::::::::= 4444444444444444444444444444444444444444444444444444444444444444444444444444 X:::::::::<<>>::::;:;;;;=",
"<<1<1111222221XX::::::::= 4444444444444444444444444444444444444444444444444444444444444444444444444444 X:::::::::<<>>:::;;;;;;==",
"<1<11111222111XX::::::::= 4444444444444444444444444444444444444444444444444444444444444444444444444444 X:::::::::<<>>:::;;;;=;==",
"<1<12222221221XX::::::::= 4444444444444444444444444444444444444444444444444444444444444444444444444444 X:::::::::<<:::::;;;;=;=*",
"<1111222222211XX::::::::= 4444444444444444444444444444444444444444444444444444444444444444444444444444 X:::::::::<<::;;;;;;=====",
"<1112222211111XX::::::::= 4444444444444444444444444444444444444444444444444444444444444444444444444444 X:::::::::<<:;;;;;=;====*",
"1112222121111<XX::::::::= 4444444444444444444444444444444444444444444444444444444444444444444444444444 X:::::::::<<::;;;;;;===**",
"2222221221111<XX::::::::= 4444444444444444444444444444444444444444444444444444444444444444444444444444 X:::::::::<<:;;;;=======*",
"1222221211111<XX::::::::= 4444444444444444444444444444444444444444444444444444444444444444444444444444 X:::::::::<<;;;====******",
"2222121111<<<<XX::::::::= 4444444444444444444444444444444444444444444444444444444444444444444444444444 X:::::::::<<;;=;;===****&",
"222122111<<1<<XX::::::::= 4444444444444444444444444444444444444444444444444444444444444444444444444444 X:::::::::<<;;=;=====***&",
"22212111111<<<XX:::;13::= 4444444444444444444444444444444444444444444444444444444444444444444444444444 X:::;13:::<<======****&&&",
"2111111<<<<<<,XX:::*>1::= 4444444444444444444444444444444444444444444444444444444444444444444444444444 X:::*>1:::<<;;===***&&&&&",
"122111<<1<<<,,XX::;#*=::= 4444444444444444444444444444444444444444444444444444444444444444444444444444 X::;#*=:::<<;======**&&&&",
"12111111<<<<<,XX:;;=*;::= 4444444444444444444444444444444444444444444444444444444444444444444444444444 X:;;=*;:::<<==******&&&&#",
"1111<1<<<<,,,,XX::;;;:::= 4444444444444444444444444444444444444444444444444444444444444444444444444444 X::;;;::::<<==***&&&&&###",
"111<<1<<<,,,,,XX::::::::= 4444444444444444444444444444444444444444444444444444444444444444444444444444 X:::::::::<<==*=**&&&#&&#",
"11111<<<<<,,,,XX::::::::= 4444444444444444444444444444444444444444444444444444444444444444444444444444 X:::::::::<<*****&&&&#&##",
"111<<<<,<,,,,>XX::::::::= 4444444444444444444444444444444444444444444444444444444444444444444444444444 X:::::::::<<**&&&&&######",
"<<<<<<,,,,,>>>XX::::::::= 4444444444444444444444444444444444444444444444444444444444444444444444444444 X:::::::::<<=*&&&&#&&###@",
"<1<<<<<,,,>,,>XX::::::::= 4444444444444444444444444444444444444444444444444444444444444444444444444444 X:::::::::<<**&&&&&&###@@",
"<<<<<<,,,,>,>>XX::::::::= 4444444444444444444444444444444444444444444444444444444444444444444444444444 X:::::::::<<*&&&&###@#@@@",
"<<<,,,,,>>>>>>XX::::::::= 4444444444444444444444444444444444444444444444444444444444444444444444444444 X:::::::::<<&&&#&###@@@@+",
"<<<,,,,>,,>>>:XX::::::::= 4444444444444444444444444444444444444444444444444444444444444444444444444444 X:::::::::<<&&#&&###@@@@@",
"<<<,,,,,,>>>>>XX::::::::= 4444444444444444444444444444444444444444444444444444444444444444444444444444 X:::::::::<<&&#&####@@@@+",
",<,,,,>>>>>:::XX::::::::= 4444444444444444444444444444444444444444444444444444444444444444444444444444 X:::::::::<<######@@@++++",
",,,,>,>>>>::::XX::::::::= 4444444444444444444444444444444444444444444444444444444444444444444444444444 X:::::::::<<&&@##@@@@+@++",
",,,>,,>>>>:>::XX:::;13::= 4444444444444444444444444444444444444444444444444444444444444444444444444444 X:::;13:::<<&#@##@@@@++++",
",,,>,>>>::::::XX:::*>1::= 4444444444444444444444444444444444444444444444444444444444444444444444444444 X:::*>1:::<<##@@@@+@++++O",
",>>>>>>::::;;;XX::;#*=::= 4444444444444444444444444444444444444444444444444444444444444444444444444444 X:::#*=::;<<##@@@++@++O+O",
">,,>>>::>::::;XX:;;=*;::= 4444444444444444444444444444444444444444444444444444444444444444444444444444 X::::;;:;;<<##@@@@@++O++O",
">,>>>::::::;;;XX::;;;:::= 4444444444444444444444444444444444444444444444444444444444444444444444444444 X::::::;;=<<@@@@@++++O+OO",
">>>>:>:::;;;;;XX::::::::= 4444444444444444444444444444444444444444444444444444444444444444444444444444 X:::::;;==<<@@+++++OOOOOO",
">>>::>:::;;=;=XX::::::::= 4444444444444444444444444444444444444444444444444444444444444444444444444444 X::::;;==*<<@@+@++O++OOOO",
">>::::::;;;;;=XX::::::::= 4444444444444444444444444444444444444444444444444444444444444444444444444444 X:::;;==**<<@@++++++OOOO+",
">>>:::;;:;;;==XX::::::::= 4444444444444444444444444444444444444444444444444444444444444444444444444444 X::;;==***<<+++++OOOOO+++",
":::;::;;==;===XX::::::::= 4444444444444444444444444444444444444444444444444444444444444444444444444444 X:;;==****<<@++O+OOO++++@",
":::;:;;;;;===*XX::::::::= 4444444444444444444444444444444444444444444444444444444444444444444444444444 X;;==*****<<+++++OOOO++@O",
":::;:;;;;=====XX::::::::= 4444444444444444444444444444444444444444444444444444444444444444444444444444 X;==******<<++OOOOO++++OO",
":::;;;=====*=*XX::::::::= 4444444444444444444444444444444444444444444444444444444444444444444444444444 X==*******<<OOOOOO++++OO@",
";:;;;;====**=*XX::::::::= 4444444444444444444444444444444444444444444444444444444444444444444444444444 X=********<<++OOOO++@OO@@",
":::;;;======**XX::::::::= 4444444444444444444444444444444444444444444444444444444444444444444444444444 X*********<<+OOO+++@OO@@@",
";;;=;=====****XX::::::::= 4444444444444444444444444444444444444444444444444444444444444444444444444444 X*********<<OOO++++OO@@@#",
";;;====******&XX:::;13::= 4444444444444444444444444444444444444444444444444444444444444444444444444444 X*&&#:,***<<OOO++@OO@@###",
"=;;====*=*****XX:::*>1::= 4444444444444444444444444444444444444444444444444444444444444444444444444444 X*&#o*;***<<Oo++@OO@@@###",
"=;=====******&XX::;=*=::= 4444444444444444444444444444444444444444444444444444444444444444444444444444 X**#oo#**=<<o+++OO@@#@###",
"====*=****&&&&XX:;;==;::= 4444444444444444444444444444444444444444444444444444444444444444444444444444 X**###**==<<++@OO@@@###&#",
"===**=****&*&&XX::;;;:::= 4444444444444444444444444444444444444444444444444444444444444444444444444444 X******==;<<++OO@@@####&#",
"<<<<<<<<<<<<>>@X::::::::= 4444444444444444444444444444444444444444444444444444444444444444444444444444 X*****==;;<<<<<<<<<<<<<<<",
"<<<<<<<<<<<<>>=@::::::::= 4444444444444444444444444444444444444444444444444444444444444444444444444444 X****==;;:<<<<<<<<<<<<<<<",
"::::::::::::::::::::::::= 4444444444444444444444444444444444444444444444444444444444444444444444444444 X***==;;:::::::::::::::::",
"::::::::::::::::::::::::= 4444444444444444444444444444444444444444444444444444444444444444444444444444 X**==;;::::::::::::::::::",
"::::::::::::::::::::::::= 4444444444444444444444444444444444444444444444444444444444444444444444444444 X*==;;:::::::::::::::::::",
":::::::::;13::::::::::::= 4444444444444444444444444444444444444444444444444444444444444444444444444444 X==;;::::::::;13:::::::::",
":::::::::*>1::::::::::::= 4444444444444444444444444444444444444444444444444444444444444444444444444444 X=;;:::::::::*>1:::::::::",
"::::::::;#*=::::::::::::= 4444444444444444444444444444444444444444444444444444444444444444444444444444 X;;:::::::::;#*=:::::::::",
":::::::;;=*;::::::::::::= 4444444444444444444444444444444444444444444444444444444444444444444444444444 X;:::::::::;;=*;::::::::;",
"::::::::;;;:::::::::::::= 4444444444444444444444444444444444444444444444444444444444444444444444444444 X:::::::::::;;;::::::::::",
"::::::::::::::::::::::::* 4444444444444444444444444444444444444444444444444444444444444444444444444444 X::::::::::::::::::::::::",
"%%%%%%%%%%%%%%%%%%%%%%%$$.4444444444444444444444444444444444444444444444444444444444444444444444444444 .$$%%%%%%%%%%%%%%%%%%%%%%",
"%%%%%%%%%%%%%%%%%%%%%%%$$.4444444444444444444444444444444444444444444444444444444444444444444444444444.$$%%%%%%%%%%%%%%%%%%%%%%%"
};
