/* XPM */
static char *result[] = {
/* columns rows colors chars-per-pixel */
"128 128 23 1 ",
"  c #000001",
". c gray23",
"X c #005B5B",
"o c #006F6F",
"O c #007373",
"+ c #007777",
"@ c #007B7B",
"# c #007F7F",
"$ c #4B4B4B",
"% c gray34",
"& c #008787",
"* c #008F8F",
"= c #009B9B",
"- c #009F9F",
"; c #00A7A7",
": c #23B3B3",
"> c #23B7B7",
", c #4BC3C3",
"< c #77CBCB",
"1 c #9FDFDF",
"2 c #BBEBEB",
"3 c #DBF7F7",
"4 c None",
/* pixels */
"...............44444444444444444444444444444444444444444444444444444444444444444444444444444444444444444444444444...............",
"...............44444444444444444444444444444444444444444444444444444444444444444444444444444444444444444444444444...............",
"oooooooooooooo 44444444444444444444444444444444444444444444444444444444444444444444444444444444444444444444444444 Oooooooooooooo",
"++++++++++++++ 44444444444444444444444444444444444444444444444444444444444444444444444444444444444444444444444444 O+++++++++++++",
"@@@@@@@@@@@@@+ 44444444444444444444444444444444444444444444444444444444444444444444444444444444444444444444444444 O@@@@@@@@@@@@@",
",&&&&&&&&&&&&@ 44444444444444444444444444444444444444444444444444444444444444444444444444444444444444444444444444 O&&&&&&&&&&&&&",
";&&&&&&&&&&&&@ 44444444444444444444444444444444444444444444444444444444444444444444444444444444444444444444444444 O&&&&&&&&&&&&#",
"#=========***& 44444444444444444444444444444444444444444444444444444444444444444444444444444444444444444444444444 O===========*#",
"*;;;;;;;;****& 44444444444444444444444444444444444444444444444444444444444444444444444444444444444444444444444444 O;;;;;;;;;;;*#",
"=;;;;;;;*****& 44444444444444444444444444444444444444444444444444444444444444444444444444444444444444444444444444 O;;;;;;;;;;;=*",
"XXXXO==******* 44444444444444444444444444444444444444444444444444444444444444444444444444444444444444444444444444 O:::::::::=oXX",
"XXXXO=******** 44444444444444444444444444444444444444444444444444444444444444444444444444444444444444444444444444 O:::::::::,=XX",
"@@@XO********* 44444444444444444444444444444444444444444444444444444444444444444444444444444444444444444444444444 O:::::::::,,##",
"@@@XO********* 44444444444444444444444444444444444444444444444444444444444444444444444444444444444444444444444444 O:::::::::,,;=",
"@@@XO*&&#:,*** 44444444444444444444444444444444444444444444444444444444444444444444444444444444444444444444444444 O:::;13:::,,;;",
"@@@XO*&#o*;*** 44444444444444444444444444444444444444444444444444444444444444444444444444444444444444444444444444 @:::*>1:::,,;;",
"##@XO**#oo#*** 44444444444444444444444444444444444444444444444444444444444444444444444444444444444444444444444444 @::;#*=:::,,::",
"##@XO**###**== 44444444444444444444444444444444444444444444444444444444444444444444444444444444444444444444444444 O:;;=*;:::,,:;",
"###XO******=== 44444444444444444444444444444444444444444444444444444444444444444444444444444444444444444444444444 O::;;;::::,,:;",
"#&#XO*****==;= 44444444444444444444444444444444444444444444444444444444444444444444444444444444444444444444444444 O:::::::::,,:>",
"&&#XO****==;;= 44444444444444444444444444444444444444444444444444444444444444444444444444444444444444444444444444 O:::::::::,,::",
"##&XO***==;;:= 44444444444444444444444444444444444444444444444444444444444444444444444444444444444444444444444444 O:::::::::,,::",
"&&&XO**==;;::= 44444444444444444444444444444444444444444444444444444444444444444444444444444444444444444444444444 O:::::::::,,>>",
"&&&XO*==;;:::= 44444444444444444444444444444444444444444444444444444444444444444444444444444444444444444444444444 O:::::::::,,>>",
"&&&XO==;;::::= 44444444444444444444444444444444444444444444444444444444444444444444444444444444444444444444444444 O:::::::::,,>>",
"&&&X@=;;::::;= 44444444444444444444444444444444444444444444444444444444444444444444444444444444444444444444444444 O:::::::::,,>>",
"***X@;;::::;-= 44444444444444444444444444444444444444444444444444444444444444444444444444444444444444444444444444 O:::::::::,,,,",
"*=*XO;::::;-;= 44444444444444444444444444444444444444444444444444444444444444444444444444444444444444444444444444 O:::::::::,,,>",
"***XO::::;-;:= 44444444444444444444444444444444444444444444444444444444444444444444444444444444444444444444444444 O:::::::::,,,,",
"***XO:::;-;::= 44444444444444444444444444444444444444444444444444444444444444444444444444444444444444444444444444 O:::::::::,,,,",
"==*XO::;;13::= 44444444444444444444444444444444444444444444444444444444444444444444444444444444444444444444444444 O:::;13:::,,,,",
"===Xo:;-*>1::= 44444444444444444444444444444444444444444444444444444444444444444444444444444444444444444444444444 O:::*>1:::,,,,",
"===Xo;-;#*=::= 44444444444444444444444444444444444444444444444444444444444444444444444444444444444444444444444444 O::;#*=:::,,<,",
"=;=Xo--;=*;::= 44444444444444444444444444444444444444444444444444444444444444444444444444444444444444444444444444 O:;;=*;:::,,<<",
";;=Xo-;;;;:::= 44444444444444444444444444444444444444444444444444444444444444444444444444444444444444444444444444 O::;;;::::,,<<",
"==;Xo;:::::::= 44444444444444444444444444444444444444444444444444444444444444444444444444444444444444444444444444 O:::::::::,,<<",
";;;Xo::::::::= 44444444444444444444444444444444444444444444444444444444444444444444444444444444444444444444444444 O:::::::::,,<1",
";;;Xo::::::::= 44444444444444444444444444444444444444444444444444444444444444444444444444444444444444444444444444 O:::::::::,,1<",
";;;Xo::::::::= 44444444444444444444444444444444444444444444444444444444444444444444444444444444444444444444444444 O:::::::::,,1<",
";;;Xo::::::::= 44444444444444444444444444444444444444444444444444444444444444444444444444444444444444444444444444 O:::::::::,,11",
":::Xo::::::::= 44444444444444444444444444444444444444444444444444444444444444444444444444444444444444444444444444 O:::::::::,,11",
":::Xo::::::::= 44444444444444444444444444444444444444444444444444444444444444444444444444444444444444444444444444 @:::::::::,,11",
":::Xo::::::::= 44444444444444444444444444444444444444444444444444444444444444444444444444444444444444444444444444 @:::::::::,,11",
":::Xo::::::::= 44444444444444444444444444444444444444444444444444444444444444444444444444444444444444444444444444 O:::::::::,<22",
">>:Xo::::::::= 44444444444444444444444444444444444444444444444444444444444444444444444444444444444444444444444444 O:::::::::<121",
">>:Xo::::::::= 44444444444444444444444444444444444444444444444444444444444444444444444444444444444444444444444444 O:::::::::1122",
">>>Xo:::;13::= 44444444444444444444444444444444444444444444444444444444444444444444444444444444444444444444444444 O:::;13:::1122",
">,>XX:::*>1::= 44444444444444444444444444444444444444444444444444444444444444444444444444444444444444444444444444 o:::*>1:::2222",
",>>XX::;#*=::= 44444444444444444444444444444444444444444444444444444444444444444444444444444444444444444444444444 o::;#*=:::2221",
",>,XX:;;=*;::= 44444444444444444444444444444444444444444444444444444444444444444444444444444444444444444444444444 o:;;=*;:::2221",
",,,XX::;;;:::= 44444444444444444444444444444444444444444444444444444444444444444444444444444444444444444444444444 o::;;;::::2222",
",,,XX::::::::= 44444444444444444444444444444444444444444444444444444444444444444444444444444444444444444444444444 o:::::::::2211",
",,,XX::::::::= 44444444444444444444444444444444444444444444444444444444444444444444444444444444444444444444444444 o:::::::::221<",
",<,XX::::::::= 44444444444444444444444444444444444444444444444444444444444444444444444444444444444444444444444444 o:::::::::2211",
"<<,XX::::::::= 44444444444444444444444444444444444444444444444444444444444444444444444444444444444444444444444444 o:::::::::111<",
"<,<XX::::::::= 44444444444444444444444444444444444444444444444444444444444444444444444444444444444444444444444444 o:::::::::1<1<",
"<<<XX::::::::= 44444444444444444444444444444444444444444444444444444444444444444444444444444444444444444444444444 o:::::::::<<<<",
"<<<XX::::::::= 44444444444444444444444444444444444444444444444444444444444444444444444444444444444444444444444444 o:::::::::<<,<",
"<1<XX::::::::= 44444444444444444444444444444444444444444444444444444444444444444444444444444444444444444444444444 o:::::::::<<,,",
"<<<XX::::::::= 44444444444444444444444444444444444444444444444444444444444444444444444444444444444444444444444444 o:::::::::<<,,",
"111XX::::::::= 44444444444444444444444444444444444444444444444444444444444444444444444444444444444444444444444444 o:::::::::<<<,",
"121XX::::::::= 44444444444444444444444444444444444444444444444444444444444444444444444444444444444444444444444444 o:::::::::<<,,",
"111XX:::;13::= 44444444444444444444444444444444444444444444444444444444444444444444444444444444444444444444444444 o:::;13:::<<,,",
"111XX:::*>1::= 44444444444444444444444444444444444444444444444444444444444444444444444444444444444444444444444444 X:::*>1:::<<,,",
"222XX::;#*=::= 44444444444444444444444444444444444444444444444444444444444444444444444444444444444444444444444444 X::;#*=:::<<,>",
"222XX:;;=*;::= 44444444444444444444444444444444444444444444444444444444444444444444444444444444444444444444444444 X:;;=*;:::<<>>",
"222XX::;;;:::= 44444444444444444444444444444444444444444444444444444444444444444444444444444444444444444444444444 X::;;;::::<<,>",
"221XX::::::::= 44444444444444444444444444444444444444444444444444444444444444444444444444444444444444444444444444 X:::::::::<<>>",
"221XX::::::::= 44444444444444444444444444444444444444444444444444444444444444444444444444444444444444444444444444 X:::::::::<<>>",
"111XX::::::::= 44444444444444444444444444444444444444444444444444444444444444444444444444444444444444444444444444 X:::::::::<<>>",
"221XX::::::::= 44444444444444444444444444444444444444444444444444444444444444444444444444444444444444444444444444 X:::::::::<<::",
"211XX::::::::= 44444444444444444444444444444444444444444444444444444444444444444444444444444444444444444444444444 X:::::::::<<::",
"111XX::::::::= 44444444444444444444444444444444444444444444444444444444444444444444444444444444444444444444444444 X:::::::::<<:;",
"11<XX::::::::= 44444444444444444444444444444444444444444444444444444444444444444444444444444444444444444444444444 X:::::::::<<::",
"11<XX::::::::= 44444444444444444444444444444444444444444444444444444444444444444444444444444444444444444444444444 X:::::::::<<:;",
"11<XX::::::::= 44444444444444444444444444444444444444444444444444444444444444444444444444444444444444444444444444 X:::::::::<<;;",
"<<<XX::::::::= 44444444444444444444444444444444444444444444444444444444444444444444444444444444444444444444444444 X:::::::::<<;;",
"1<<XX::::::::= 44444444444444444444444444444444444444444444444444444444444444444444444444444444444444444444444444 X:::::::::<<;;",
"<<<XX:::;13::= 44444444444444444444444444444444444444444444444444444444444444444444444444444444444444444444444444 X:::;13:::<<==",
"<<,XX:::*>1::= 44444444444444444444444444444444444444444444444444444444444444444444444444444444444444444444444444 X:::*>1:::<<;;",
"<,,XX::;#*=::= 44444444444444444444444444444444444444444444444444444444444444444444444444444444444444444444444444 X::;#*=:::<<;=",
"<<,XX:;;=*;::= 44444444444444444444444444444444444444444444444444444444444444444444444444444444444444444444444444 X:;;=*;:::<<==",
",,,XX::;;;:::= 44444444444444444444444444444444444444444444444444444444444444444444444444444444444444444444444444 X::;;;::::<<==",
",,,XX::::::::= 44444444444444444444444444444444444444444444444444444444444444444444444444444444444444444444444444 X:::::::::<<==",
",,,XX::::::::= 44444444444444444444444444444444444444444444444444444444444444444444444444444444444444444444444444 X:::::::::<<**",
",,>XX::::::::= 44444444444444444444444444444444444444444444444444444444444444444444444444444444444444444444444444 X:::::::::<<**",
">>>XX::::::::= 44444444444444444444444444444444444444444444444444444444444444444444444444444444444444444444444444 X:::::::::<<=*",
",,>XX::::::::= 44444444444444444444444444444444444444444444444444444444444444444444444444444444444444444444444444 X:::::::::<<**",
",>>XX::::::::= 44444444444444444444444444444444444444444444444444444444444444444444444444444444444444444444444444 X:::::::::<<*&",
">>>XX::::::::= 44444444444444444444444444444444444444444444444444444444444444444444444444444444444444444444444444 X:::::::::<<&&",
">>:XX::::::::= 44444444444444444444444444444444444444444444444444444444444444444444444444444444444444444444444444 X:::::::::<<&&",
">>>XX::::::::= 44444444444444444444444444444444444444444444444444444444444444444444444444444444444444444444444444 X:::::::::<<&&",
":::XX::::::::= 44444444444444444444444444444444444444444444444444444444444444444444444444444444444444444444444444 X:::::::::<<##",
":::XX::::::::= 44444444444444444444444444444444444444444444444444444444444444444444444444444444444444444444444444 X:::::::::<<&&",
">::XX:::;13::= 44444444444444444444444444444444444444444444444444444444444444444444444444444444444444444444444444 X:::;13:::<<&#",
":::XX:::*>1::= 44444444444444444444444444444444444444444444444444444444444444444444444444444444444444444444444444 X:::*>1:::<<##",
";;;XX::;#*=::= 44444444444444444444444444444444444444444444444444444444444444444444444444444444444444444444444444 X:::#*=::;<<##",
"::;XX:;;=*;::= 44444444444444444444444444444444444444444444444444444444444444444444444444444444444444444444444444 X::::;;:;;<<##",
";;;XX::;;;:::= 44444444444444444444444444444444444444444444444444444444444444444444444444444444444444444444444444 X::::::;;=<<@@",
";;;XX::::::::= 44444444444444444444444444444444444444444444444444444444444444444444444444444444444444444444444444 X:::::;;==<<@@",
"=;=XX::::::::= 44444444444444444444444444444444444444444444444444444444444444444444444444444444444444444444444444 X::::;;==*<<@@",
";;=XX::::::::= 44444444444444444444444444444444444444444444444444444444444444444444444444444444444444444444444444 X:::;;==**<<@@",
";==XX::::::::= 44444444444444444444444444444444444444444444444444444444444444444444444444444444444444444444444444 X::;;==***<<++",
"===XX::::::::= 44444444444444444444444444444444444444444444444444444444444444444444444444444444444444444444444444 X:;;==****<<@+",
"==*XX::::::::= 44444444444444444444444444444444444444444444444444444444444444444444444444444444444444444444444444 X;;==*****<<++",
"===XX::::::::= 44444444444444444444444444444444444444444444444444444444444444444444444444444444444444444444444444 X;==******<<++",
"*=*XX::::::::= 44444444444444444444444444444444444444444444444444444444444444444444444444444444444444444444444444 X==*******<<OO",
"*=*XX::::::::= 44444444444444444444444444444444444444444444444444444444444444444444444444444444444444444444444444 X=********<<++",
"=**XX::::::::= 44444444444444444444444444444444444444444444444444444444444444444444444444444444444444444444444444 X*********<<+O",
"***XX::::::::= 44444444444444444444444444444444444444444444444444444444444444444444444444444444444444444444444444 X*********<<OO",
"**&XX:::;13::= 44444444444444444444444444444444444444444444444444444444444444444444444444444444444444444444444444 X*&&#:,***<<OO",
"***XX:::*>1::= 44444444444444444444444444444444444444444444444444444444444444444444444444444444444444444444444444 X*&#o*;***<<Oo",
"**&XX::;=*=::= 44444444444444444444444444444444444444444444444444444444444444444444444444444444444444444444444444 X**#oo#**=<<o+",
"&&&XX:;;==;::= 44444444444444444444444444444444444444444444444444444444444444444444444444444444444444444444444444 X**###**==<<++",
"*&&XX::;;;:::= 44444444444444444444444444444444444444444444444444444444444444444444444444444444444444444444444444 X******==;<<++",
"<>>@X::::::::= 44444444444444444444444444444444444444444444444444444444444444444444444444444444444444444444444444 X*****==;;<<<<",
"<>>=@::::::::= 44444444444444444444444444444444444444444444444444444444444444444444444444444444444444444444444444 X****==;;:<<<<",
":::::::::::::= 44444444444444444444444444444444444444444444444444444444444444444444444444444444444444444444444444 X***==;;::::::",
":::::::::::::= 44444444444444444444444444444444444444444444444444444444444444444444444444444444444444444444444444 X**==;;:::::::",
":::::::::::::= 44444444444444444444444444444444444444444444444444444444444444444444444444444444444444444444444444 X*==;;::::::::",
"3::::::::::::= 44444444444444444444444444444444444444444444444444444444444444444444444444444444444444444444444444 X==;;::::::::;",
"1::::::::::::= 44444444444444444444444444444444444444444444444444444444444444444444444444444444444444444444444444 X=;;:::::::::*",
"=::::::::::::= 44444444444444444444444444444444444444444444444444444444444444444444444444444444444444444444444444 X;;:::::::::;#",
";::::::::::::= 44444444444444444444444444444444444444444444444444444444444444444444444444444444444444444444444444 X;:::::::::;;=",
":::::::::::::= 44444444444444444444444444444444444444444444444444444444444444444444444444444444444444444444444444 X:::::::::::;;",
":::::::::::::* 44444444444444444444444444444444444444444444444444444444444444444444444444444444444444444444444444 X:::::::::::::",
"%%%%%%%%%%%%$$.44444444444444444444444444444444444444444444444444444444444444444444444444444444444444444444444444 .$$%%%%%%%%%%%",
"%%%%%%%%%%%%$$.44444444444444444444444444444444444444444444444444444444444444444444444444444444444444444444444444.$$%%%%%%%%%%%%"
};
