/* XPM */
static char *_ba289bc0e7a4bd4a948a9f2933dfa43ZS263r1cADVbqT1y[] = {
/* columns rows colors chars-per-pixel */
"127 127 43 1 ",
"  c black",
". c #040404",
"X c #080804",
"o c #0C0C08",
"O c #100C08",
"+ c #100C10",
"@ c #141010",
"# c #1C1414",
"$ c #181818",
"% c #201C18",
"& c #28201C",
"* c #242020",
"= c #2C282C",
"- c #302420",
"; c #342C28",
": c #3C302C",
"> c #383434",
", c #403430",
"< c #483C34",
"1 c #403C3C",
"2 c #4C4038",
"3 c #4C4848",
"4 c #544440",
"5 c #5C4C44",
"6 c #585050",
"7 c #64544C",
"8 c #6C5C50",
"9 c #60585C",
"0 c #786458",
"q c #6C6064",
"w c #746C70",
"e c #806C60",
"r c #8C7468",
"t c #807478",
"y c #947C70",
"u c #9C8478",
"i c #A88C7C",
"p c #887C80",
"a c #94888C",
"s c #988C90",
"d c #A09498",
"f c #A89CA0",
"g c #ACA4A8",
/* pixels */
",q6933666w999wwwwt0q6qqq9w696q63=3t16*.%116qwqqqwwqtwq99qqqqwwwwqqqqwwp9stwwqwwqqwqwqqwpqttqtwqqwqq99q999qqqqwwwwqq393633311169",
"$;w699336qtq9qqqqw96wqq99qq66963=3t39=.%1369qwqw99qqqqq999qqqwwwwwwwptqtrtqqqqqwwqwqttptttqpateqqwwq993q999qqqwwwwwq3636313139*",
"$%2pq6996qtawqwqwtqtqq9999q99q96=3w36=.@33q9ww99qqqaq939qqqqwwwtwtwwwppapwwtwtwttwqwwtqaapaaayywwwqqq9w39qqqqwwwtwt69663q366q-@",
"$+%3a9qt9qwtpwwwtwtwwwwqwwwqqqw9=3t69>.%16qqwqqqqqqqq999qwwwwwwwtqqwwtaawttttttwwwtpt9gppptppaipwqqqqq9wqqwwwwwwwtq9996q998t=$@",
"$$$>6dwtwetttppttettwtwwtwtpqptq=3t99=.%36qtqpwwwwwqqwwwwwwwwwwaqttttppttpdwaatttwwwtspapptttautqpwwwwqqqqqwwwwqaqttwqqwwpsq$@@",
"$$+$1t3313113331>>1311133113311,=3t69> %=13133111313113131331311133111331113331113131133331113131313133131331311131131331157$@@",
"$$$+*91<,,1,<1>=&->1<,<,,,111,,3*6p99>+%-:13<,,1,,111<11<<1,,,,11,,,,,3<<,<,,111<,,11,1,,111111111311,111111<,3,111,,1111117$@@",
"$$$$*91,,111,,>--=>>1<,,,1111,,1*3t99= %::1,111,1<3<<11>--=,1<3,<3<<<4113<,1<,,<,,1=4=44=3<,=<,,<,,==4=44==1==%--=,,11,,,<19$@@",
"@$$$$q1,1111,11>-==>3111,,1113,<*6p39> %;:1111111311,,,>->;<1,<,11111,1,3<,,1,<<,,,,<,,,<,31<,1,<<,,,,<,611,;-%--;1,,3111139@@@",
"@@@$$w1,11,,,1>=-==113,11111111<*6a69=.@-=<1,,<31<11,,<>--;<<11>1>,11><,11><,11111,1,1144,1111>,11><,111411<=%--->1,,,,,,,36$@@",
"@@@$*q1,,111<11>&=>1131,13311,1,*6p6q=.@;;,,3,1,1<1,,<,>--=,<>11,<,<<1,<1131,>>>,<,,,<<1<,>11,<,<<1,<1311,<,=--&=>1,<3,<,,1q@@@",
"$@@$*91111133,1=-==>11111<,,<,,<=9tqq>+%--,,3,<111,,<,<>=-;,,>1...........6<,>1........1>>>1...........>4,,,>---=;,311,11,63$+@",
"@@$$*q1111311,1>-=>>1,111,1,1,1,=3t99=.%-:,,,1331,,<,1,>==>13<3+.........+3<,<3+.......1>=<3...........1<111=----=,1,,3,,316$+@",
"@@@$*9111313,1>>=>=1,<,,11311,,1=3t69> %-;,,,<,1<,,,111>>=>3<,q++@O@@@$+++9<1,1++@@OO@@3=1,1.+@O@@@+++.1411<;----;1,1,<13139++@",
"@@@@*6133111,,1>===1,<<1,,1,1<,1*6p99>+%-:1,,<,111,,111>==111>6+$@@OO+++++3,<1>+$@@@@OO3,1=>++@@OO+++++1,4<,;----;,,1,131119++@",
"@@@$*93313<,,1>>==>11<,,1,,,3,<,*3t99= $$-,<3,,,,1,,<,1>>=>1,>3+$$$%$*$*$+11,>3+$$*$$$$6<=>3++$$%$*$*$+=,,,1;----;1111111319++@",
"@@@@*q1131,,,<1=-=>1,,,,,,3,,11,*6p39> @$-<,1,1,,,,1,11>==>1,>6+$*-=-==*++111>6+$*=--*$3,>=6+$*-=-==*++=,,1,;=---;<131113113++@",
"@@@$*913,,,<,,>>==>>1,,,,,<<,,1,*6a69=.@-;,,11,,,,1,,,1>>=113>3+$*,::>>*$+311>3+$*=:,*$61<13++*,::>>*$+>,,,,;===>>,313111113++@",
"@@@@*31<,,,,,1>>=>>1113,11111133*6p6q=.%-;,,,,1,,,,,,,,1>=11<,3+$*,11>,=$+11>33+$%,<,=$6>3,3+$*,11>,=$+>1111,::;=>1131131113$+@",
"@@@@*91,<<,1,31>=>>>113131113111=9tqq>+%-;,,<,<31<,<,,,,>=>1311+$=11111=+$1>311+$*>11**31>31+$=11111=+$13311,,::=>3,,1,11,14@@@",
"@@@@$9113,,,11>=>=>>11,11111131,*3t39=.&;;,,,,<,<<,,,<,>>=>1113+$*>1<,>=$+39,13+$*<3>=*613>3+$*>1<,>=$+>1,1,,,::=>1,,1111111@@@",
"@@@@*6131,<,,1>>==>11113131111<,*3w36=.$;;,,,,,<<<<,<,1>>=>3313+$=1,<1>=$+6<<13+$=113=*6>113+$=1,<1>=$+>331,=:::>>1,,33<,114@@@",
"@@@$*61,,,,<,,>>=>>>11<111111111*3t69>.&-;,,<,<1<,<,1,11>=11319+*=111,,=$$1,,19+*=111>*6,119+*=111,,=$$>1111:1::>>,,,1,,,,13@@@",
"@@@@*61,,11311>>>=>1111,13111111*3t99=.%%;,,,,<11,<,,,,;>>>1113+*=,11,,=$$1<,13+*>1,,==6,,13+*=,11,,=$$1311=1,::>>11,<1,,1>3@@@",
"@@@@*61,,,1331>>>>>1113333111<,1=3t69> @&;:,1<,1<31,,,,,;>;,111$*=,,1,,>$+1,,11$*=,<,>*51161$*=,,1,,>$+111111>>>>>1,,,,,,,11@@@",
"@@@@$61<<,,3111=>>1,,3<,,3,,,<<1*6p99>+@&::,,<<<13111<,,;,>,,<3$*><1111>*$1,<<3$*>,<<1=61616$*><1111>*$1,<,,,>>>=1113<,<<,>3@@@",
"@@@@*613,,,111>=>>1>,,,,<1,,,13>*3t99= $&;:,,,,<,,,3<<,,;;<,<13$*>>>1>1>*$11,13$*>,1>>=69333$*>>>1>1>*$>1,<,,::>=>1,,,,,,,>6@@@",
"@@@@*61,,11,11>==>>;,,1,,,,<,<,1*6p39> %&;:,,,,,,,,,,<<;;;>,111$*1111>>>=$1,,11$*11>11=q3131$*1111>>>=$11,,,::>>=>1,,<,<,,>6@@@",
"@@@@*61<31,,<,;=>>>1,,,,,1,,,13,*6a69=.--;:<,<,,,<<,,,,13>31,11$=>,1,,1>=$1,<11$=>>1,1=61313$=>,1,,1>=$11<,<:;;>=;,<,,,11<13@@@",
"@@@@*61,1,,,,,;>;;>1<,,<<,,,,,,,*6p6q=.-=,,,,,,,<,<<,1,1,,,1,11*=1<1,,<1>*11,11*=111<1>33,11*=1<1,,<1>*11,,,::::::,,,,,,,,16@@@",
"$@@$$61,,,<,,,,;;=>1,,,<,,,,,<,<=9tqq>+$>,,,,,,,,,,,3,,3131,,>3=,3,,1131>*>,,>3=,33,,,>3<1>3=,3,,1131>*>11<,,::::,,,,,<,<<>3@@@",
"O$@@*61,,,,,,,,;;=11,<,,,,,<,,,<=9tqq>+$=11,<,,,,,,<<,,,<,,<,>1>13<,1,,1>=>1,>1>13<,<,>1<,>1=13<,1,,1>=>1,,1:;;::,,<,<,,<<13@@@",
"@@@@*61,<,1,<<>1;,1><,,1311,,,,,=3t39=.->111,,,,,<,,3<,,<,,,,45=,,4,<,,,<=>,,,1>13<,4,>1,125=,,4,<,,,<=>111<::,:=:<3,3<<<<16@@@",
"@@@@*61,,<,,<1;;;>>13,,,,<,3,,,<=3w36=.-=<1<,,,<,1,1<<<,<,,,,32:,,,<,<,,<>><,11311,<,<,11132:,,,<,<,,<>>3,<,>11::11,,<333116@@@",
"@@@@*61,,,1,3,>;,>113,,,4,,,1<,,=3t69>.$=,,,,,,,<,,<,<,,,,<,,32,1,,,,1>111,,,<<,<,,,<,>111<2,1,,,,1>111,11,1>1>,:>,13<333113@@@",
"@@@@*61,,,,1,,;,;>1>1<,<,,,1,13<=3t99=.$=1111,,1<,,,,3113,,,,<3131111111,,,,,<2<,41,,,1111<<,,<,,1,1,3111>,1,,,113,,1,,331>6@@@",
"@@@@$61,<1,,,,,>;;;31,,,1,1,3,1,=3t69> -><11,,1,,,,,2<131,<<,>311131>>1113113,<,,11<,,1>11331131,,,1111>>1>>11,11,,,,,=<<<16@@@",
"@@@@*611,,<,,,>,;<,1,1,,,,,,,11,*6p99>+-=,,,<<,,,,11311,1,,,,631311>1131131111<1,4,,,,>111331111,,,111>111113,<,,1,,,<,<,>1q@@@",
"@@$@$61,,,,<,,;;,,;,,<,,1,,<,1,,*3t99= $=,,,,,,,<,,1111,1,,,,11111331111311113,,4114<1111113131,,,,>3.......3,,,11,,<,,<,>16@@@",
"$@$@*61,,,,,,<,,;,,<,,,1<,,<,,,,*6p39> #=1,,4<<,,,,,333,<,,,,13,,,111111111113>,1,,,11111113133111,19+......6,,,,1<,,,,,,,13@@@",
"@$@@=61,,,1<,,3,;,,,<,,,,,,,,,,,*6a69=.-=,<,,,,,,,11,,,,1,<,<,,,11,,,111131111111111111>11,<,,111111w++@@OO@6,,,,1,,<=,<,,>3@@@",
"O@@@%611,,,1,,33,,<,,,,,,,,,,,,,*6p6q=.==1,,,<,,,,,,,1111<,<<,,,<3,,,,,11111,,14<,1<,11,,=<,1,,,,1119+$@@@@Oq<<,<1,,=,,,,,>1@@@",
"@@@@%61,,1111313<,1,,<,<,,,<,,,,=9tqq>+-=<,,,<,<<,,,,11,,<,,,,,33<<,,,1,,111,,1,11,11,,,,=11,,=,,,,16+$$*$$%6,1111311==<,,11@@@",
"@@@@,61,,1,1113,,111,,,1,,,<,<,,=9aqq> -=3<1<,,,<1,,,<,<<,,,,<,343<,1,11,,111,,1,1,<=,=,=,<=,,=1,3>16+$=*-=*3111,,111,=<,,>1@@@",
"$$$@-61,,,,11133<,1<,,1,,,,,,,,,=6pq9= $=<,1,,,,,,,,<,,,,,,,,<1,,<<,,:::<,<1,,,,11131,,133113,<13,>19+$%===*31>1,3111,,41,13@@@",
"@@@$161,<,11<,,,,,<<,,,,,,,,<,,,=9dwq> #><33,3,,,,1,,,,,11<,,<11,1,11>-=1,<,<,<,<,,,,,6,<31111<,1,1>6+$%>=>=6=3131,<==,14,>3@@@",
"@@@@%61,41,,,,1,,,4,,,1<,,1,2,=,=9dpq>.#->>>1,1,,<1,,<,,,1,,,,,,111,,;>><,<,<,,,,,44,,<,,,,11<,,,,<16+$*=>==361111,,,,=11<12@@@",
"@@$@161,1<,==<,,,,,<<,,,,<,1>q93$*>=$+ =33*->,,,,,,1333311,,<,1,11,,<>-;,,,,<,,,,,<,1,,1,<,11<,,,,,13+$%>>>*6131,1<,111,,,>3@@@",
"@@$@-61,14*,,,,1,,,4,,,1<,,,>931+#@@@# $=1*-><,,,,1,1,1131111,,141,,1,=;<,,<,<11,,<<4<<,<33,,,<<,,,16+$*=>>=631313<,,13,,<13@@@",
"$@$$161131<3,113,,,,<,,,<,<,>913$1qs9=+*>1$-=<,,,,,,1,,1,1<,,11,111,,;=,11,<<,11<<,<14<<,<<<311,7<,13+**=>>=9131,,=<<31<,<16O@@",
"@$$@=6111131,,11,,<<=,,,,,,,=q31+*13>*+*=1*-=1<,,41,4,,,,<<,,,14<1<,1,>>,,,,<,,,<11>1111>>>1>>1111116+*=1=1=3313311331111116++@",
"$$@$=61113,,<,,,,4,,=4,,=141=93>+1wf9>+$>1*->11,,414<,,,<,1<<1411,,,,>=,,4<<,,<<<39663331366566676369$*=>>>=6336393399331139*@@",
"$#$$=61111,=,<,,,,,==,1,,441>33>+>ws3=+$=,$->,,4141<,,,,,,,,,1,11<,,<1>>,,,<<<<<3q>=%$XXX$@@@..O.@@@#$*>>>>>$@@@@@-@@@.@@@@%3$+",
"@@@$-61131,,<,,,,<,=1=1,114,,6>>#>9p3>+*=1*==,<,4111<,,<,,,,,,111<,<1>>,1,,,,,<19>>=%%@XXX@O@ooOo@@@@@$@@OOO@@###@o@O@o##@@O+=+",
"$@@@=613311,,,,,,<1,,,,,,411=3>*+=191*+*>1*==<4111111,<,<,11,,,1,,,,1>;<,,,<<<191,=-%%%$OXO@@Oo@o@@@@@@@@@@@@##O@@@O@@O@@@#O@+*",
"@$$$=611,3<,11<,,<11,,,11111=3>-$+=>*.@**1$*><1111<,,<,1<,11,,1<1,,,,>><,,<,<163,==%%%%%OX$O@@@@$.+...++.....  +++$$O@@.+.+...+",
"$@@@-61<<3,,,1,,,,,,===,,1,,=1>>**$OO@$==1$*><,,14,3111,11,,,,14,1,,11><,4,,233==%%%%@OOXO       ##OOOXOOOOOOO####     ####OO#$",
"$$@#-61,,,<,,,,,11,1,,,,,,1,=$$++.+.+++..+*-=<141<<3,,1,<1,1,1,111,,,,4,,,,<33=*=--%#     $$@@$ OOOO ++++++++## OO$$$@@## # #$=",
"@@@@-61,,<,,,,<,1111,1,11,<1,%$$@@$XX$X$X$$*>1,1,,<<,,111,4,,1,<,,,,<,,,,,,16>===*=$@@O#$$$$$ $#  #O+*=11>>=$OOOOO#$$$ OOOOO=3%",
"@@@@-61,,,,,,,<1,,,,,,,11,4,,,-@$%%%---#***==1,1,4<,,,<11,,,<1<,,,,,,,,,,,19>==%>=*@+$11333111>1111119%*==%$313311133131>11>6-@",
"@@@@-611,11<,,<11,,,11:,1,1,,,>$$%%%=%**====>11111,,<,,,111,,<4,,,,<,,<,<161>=*=%O$+$6qwqqeeee0ttqqwwp%*$>=$wqwww90eeeetwwpw=@@",
"@$$@-611,,1,,,,,,111,,,,,,,113>=;,,,1,1>-=;<,111141,<,<;-1,1,,,,,,<,,,,,194>==*$XO++3311311133131>1>>3%*1==$9111113111511173@@@",
"@@@$-61,,11,,<,1,11,,,,,1<<,1,;-;,,<,,,>===,,1141<,,,,,;-=1,,,,1,,1,,<,163>==*%+OO.1311111,,<,,1><<>13%*===$q,,,,14,,<,11,5>+@@",
"$@@@-611,31111,,1<1,11,<1,,,411-;,,,11<>--;1111,141,<,,;-;,<,,311,,,<,1361==*%+$O.>3,1,1,1,,,,,,>,<>13-*==>$6<,,,1,,,,,1115=+@@",
"$@@@-61<,,1<,,1<,11111,,1,11<,;>1,,,,1,,--1111111141<,,>>>,<,,1,1,,,,219,===$$$$.=3,11,,1,,,,,1,,<,>>3*=>==$9,,,,1,,,,,11,4>+@@",
"$@@$=61,,,<<,,,11,11,1,,,,,11,;>1,,1111>==;<11111,1,1,,==;3,1,,,,,,,219>=>*%+$+O*31,,1,11333,,3,4,,>13%*>=>%61>1>,,,,,,1<16=+@@",
"$@@@*611,<,1<<1111,,,,:,1,11<,1>>,,11111--;114,,1,1111,;=;1<,,,,,4,,191===*$O+.-6111,,,,11:,,,,3<1,1>6%=>>>%6,1,1,,<,<<1,<6>@@@",
"$@@@*611,,,,,,1,111,,11,3<,,<,;;>,,1141>->13,,,,,1<111,==;,33,11,,1191>==$*OO %311,1111111,3,,,,311>16%==>=%51>4,1<,<<,,,,4=@@O",
"$@@@*61,,1,,,,,111,,<1:,,14,<,,,,<,,1111>=;,,,,,,,1<<,1>>>13,1,141161,=>%$O@ %311111,<,111>1<,<33>1>13%=>>>%611,41<,,,,,,,6=@@O",
"@@@@*611,1,11,,,1,,,,1>,,<,1,<;,><,,,111;>;<<,,,11,,,,,>=>1<,,,,1163,=>-@ $ O121,111,,,11,11,,<33,>>>3=,>,=%3,<,,,,,,,<,,15=O@O",
"@$@%-61,,,,11,,1<1,,,,><,,,<,<;<<,4,411>=>>,<,,,,,<11,,;;;,<,<41133==>-%XO $>11111,11,<111,,,,,33,<>13=>>>>-3,2,,<,,,,<,<,5=O@@",
"@@$$-61,,11,,,,14,1,,1=,,,<,,<<<<<14,1111>>,,,<,,1111,,>=;,1,1,1361>=>%  XO>2,11<,11111,,1,1,<3<41,>>136333661,,,<1<,,<,,,5=OO@",
"$@$#=61,,,,,,,,,,,3,,3111,1,1,,<<<<<<1141;<<<<<,<,113<,,,,133,219>,==%O$ O>1,1,<1,,1,1111,,,,333,,1>>>>1>>111,411,1,,,,41,5=OO@",
"@@@$=61,,1,,,,,,,<<,,,<134111,<,,<4,,1111;<<,,,<,<,,,,,1,>,<,2191,=*%$  .=311,11,<<1111111,3,,3431,1,4,,<,,<,,,,111,,<,><,5>@@@",
"@$@$*61<,:,,,,,<,,3<,,<1,,,,4,,,,,,<,4111,,,,,,,,,<,<,,,111441911,,*O+O *611111,,,,1,11111>11,11,<,11,,1<,<,,<11111111,3,,4=O@@",
"@@@$=61<1;,,,<,1,1<<<,<1,<,,<,,,,,,441414,,,,,,,,,,,,,<,1<,,16<,11=$.+.$32,,11,,,,11111111:,,111,11111,=<1<,,,441,1<,,111,6=O@@",
"@@@@=61,,,,,,,<,,<,<,,,3,<,1,,,,,,,11414<4,<<,,1,<<,,11,<,,194,,,=$+.++1<,,,,,<<<,,<1,,,11:11,1,1,,11111,,,1,,,11,<<,,,1116>@@@",
"@@$$=61<,:<,,1<,,,,3113,,<,1<,,11<44,4,14<,<<<,<3,,1131,,1>6411,-@++.O12<,,,<11,,,<3,,,,,,:,,<<,,1<,,,,,,,<,1<<14<,1<<11116=@@@",
"@@@@*31<,:,,1,,,,,2<13111,1>31111111111411,131<11113<,,1,136111-%++.+>6,<,,,1,1,,,<,,,,<,,,1,<141,<,,,,<<,,,,,,1,,,,,,1<,,6>@@@",
"@@#@*61,,,,<,,,,11311,1;41>1113111311,1,11,,3,11,,,,,,,,1361,,,*O+++=63,,<<,,,<11,,3,,,<,<,,,<<11,,,,,<,,<,,,,,,1,,,,,,,,,6>@@@",
"@@@$*31,1>,,,,,,,1111,1<,,>1%$@+OO+31,,,,1,<,<,,,,,,,<123q1,,,%@++ =3,31,<,,,,,1,<<1,,,1,,,,<,1<,,,<<,<11,<,11,,,<,11,,1115>@@@",
"@@@$-3111,,<,,,,,,333,<<1,13$@XXXXX1133,3,<,,1,,<<,,,323q1=11%@+.@=62,,,311<,,,,<,,,<1,,<,,<<<<,,<<<,<,1,1<,11,,1<,11,,1116>@@@",
"@@$@%611,:,,,,,,11,,,,1<1136%+XXXX 311113<,,1,<,,<,3<,1q113,=++..%6<,,,,1,,,<,,131,11,,<,,1,,3,<,,,,,,,<,,11,,,,111,,,,<,45=@@@",
"@@@@*61,,,<,,=,,,,,1111=,113$.XXX  91131,<,,,,,,4,,<3193,11,@O. %6<,,,1,,,,,311,111,<,,1,111<,,1<,,,,3113,<1,1,1,<1,1,1,,<5>@@@",
"@@@@*6111,,<<,,=<,,,,,,4,319*@ XX X311,,,<,1,,<,1,,<193111-@ ..%32,,11,,,,11331,<,,,<,131><13,1,,,,,<,,,,,,,<,3,,1,1<<,11,5>@@@",
"@@@@*3113,=<<,<,111,<,,<,136=+XXXX 71<,,,,11>11,<4,1631,,-@@. $321,1111,<311<,1<111131<11>11,<,,,,1,1,<,<<<,,<<<<,1,311,,,5=@@@",
"@@@@*61111,<<311331,,1311113*. XXX 91,<,<,,,,1>,,,1661,1=*OO.$1231111,1<<1,,,,,,11>11,11>>11,,,,<,,11<,<<,,,,1,,,,,11111116=@@@",
"@@@@*61111111,,,1111111,,,16*+X X X31<<,,4<,,=1<,133>11,%O@.@>3111<1<,3=311,,,11,13>11111133,<<,,,,,,<,,,,,11,1,,,1,,1,1116=@@@",
"@@@@*6111111,<,,,331>11<,113*. X X 31<,11<,3$31<239,,1=%@O.O=6,<,1<,,116*13112,1,,,3=,,,,,,,,,,,,,1<<,,,,<,1111,1,11,1111,6=@@@",
"@@@$-611131,,<,<,<1>331<,,13*.XXX @61,4<<,,16,,219,,,,%$@.O=6,,,<,<<,1119331,1,13<,,,<,,<3111<,,,,,,,,,,,<1,,,,,,,,:,1,1116=@@@",
"@@$$-31,113<<111,>*9,1,<<116*+X$X@%31441,111,>,19,====@..@=6<,<,311<1<1111131111,111,<,,1111,<,<<,,,11<,,<11,,,11:,:,111116=@@@",
"O@$$-6113333333<= w111111113=+$X$X%3311111111119,>>=*$..@%63,,,,<<<1,1>>1111,<<1,>>>,,1,11<,<,,,<1,,,1,,,,,,111,,,,,,,11116=@@@",
"@$+*=933331666+.6*1363363366=+$X@@-91111133333q2=>==OO. %13<11<11,,=96669q6699w19=1>>>11,3,,,,,,,,<311,,<,1,11,,,,:,11,1116=@@O",
"@+$$1$$O$$@@@+>=$>$$O$O+$$$$+$X$$$$$$$@@@@@@@%111,=@@. @13,,,31,41<=6313311131133$=>>111,,,,,11<,,<131111,,1<1,11,1,,1,,,,4=OOO",
"++$>$@$O$$$O.=$$$+$+@@O+++$$+@$+$$$$@$$@@@@@@$=,,=%O.@$,3,,<,1,<,,<>3133>=>**>3>1*=>>11<11<,,,1,,,,1,1<,,1<,11111,,11<1<,,6*OO@",
"+$=$$$$@$O@$$$$O$$+++$@$$@+++++@$$$@@$$@@@$@@@$,,%$O  ,32,,<<,,<1,<>331>=191**>>>$=1>>11>>33311,,<,,,<<,,,11,11,1,>>1,,,,,6=O@@",
"$=$@@@$@@@@O$$$@$@$$@$$O$$+@@O@$@@@@O$$@@@@@@@@%%O $$,6,<,1,,,<14,,>611#>9p3>+*11*=111>>>,,1131111,,<,1<<1111,,,,:>,,1,,<,6=@@@",
"=$++++++++++++++++++++++++++++++++++++++++++++++++ @,9<,1311<3,1,<,>33>+>ws3=+$1,$=,111>11,,1,1,,,1,,,,,,1,111,,11>>,,<,,,6=@@@",
"-1$#$$O $@@$$$ #O#O O$##$#O$$$O$$O$$$  $OO@@%%*$$ @=96<31333,<,411<=63>+1wf9>+$>1$-,1,,<,,,,,<,1,,1,1,,,,,111,,<1::,,1<<,16=@@@",
"$$6*$OOOO $$$#O$ O$OO +$$$$ O$O%=1,=##$$%****=**$@%q331<,11<<<,,<,,=13=+*13>*+*13$-,,,,,>,,,,,,1,,1,1,11,,,1,,,,1>;<,,,,,,6=@@@",
"@$$9>$$++++++++%%*%*%$>=$$$$$%%%,,,44,,,,,,>>>>>--q3,3<4,,,,<<,<3<3>31>$1qs9=+*11$-,>,<,<,<<1,<<,<,1,,11,,1<1,,,,>><11<1116-@@@",
"@@$*6p9969q6636963336q$*w66q-@@%-,-pw9q6966qqwwq9w331<1<11,<,,1,,,1=31>+#@@@# $11*=,>111,,,,1<1,<,,,11,,,,14,1,,1=><,1,<,,6=@@@",
"@@@@=61>3>>1111111>113.91113-@@%=1=93131111>=>>;=31113111<,,,<1,,,,=$$$$*>=$+ .+$*=1>11>11,,1111,,,1,,,,,,,,,3,,31,111,,,16=@@@",
"$@@@*61,,,<,,41,3=31,*611,>3-@@$1>%q1311,,>1>>1->1131331<3,,<<,,,,,>=,$=9dpq>.@@$==>>>>111,,1,1,,1,11,,,,,,,<<,,,<,,3111116=@@@",
"$@@@=31,,13,,,,11911=91,11>6=@@$==%6311>>,11,3>*131113113<,,,,11,<,,==>*9dwq> @$$%=>>>111>11,,11,,,;:,,,,,<,,3<,,<11,1<1116=@@@",
"$@@@*31,=1111,133,1>3,1,1=39%@@@==%9131=3,,<,1>>113311,,<<,113,,,,11<1,*6pq9= @*=1111>>11>,11,1,11:;;,,,<,1,1<<<,<,1,<<,,<6-@@O",
"$@@@*61*61,1311,11<3,,,,,613%X@@--%q111311,1<11=>31,1,,,,,,113111111111=9aqq> @$=,,,11>>>>,,,111,1:,,,,,,<,,<,<,,,14<,111,5-@@@",
"$@@@=6>3,111,,111131,,,4,113=@@@%=%911<11,31111=111,111,1,1111133111111=9tqq>+@*-,11,,,11>,1111,,<1::<,,1<,,,,31131,,,,11,4-@@X",
"$@@@=33,,33,,,<11>131,,4,<19=@@@==%61131111111>->3,,1<11,3313<11,11<1,<*6p6q=.@#-,,,11,111,,111,,1,>:,,1,,,,,2<131,1,,,,,,6;@@ ",
"$$@@*31,,<,1,,,,>331111,,,16$@@@%=%311133111<11>11,11313,,11,,<<,,<,,<3*6a69=.@*-,<,,,111111,111,,:;,,<,,,,11311,1,,<,1<<,5-@XX",
"#@@@=611,,,1,,,,31,,<111313q$@$$$=%311131111111>1111111,,,,33,3,1,,1<1,*6p39> @$-,,,1,,1,1,1<<11,1,,>,,,,,,,1111,1,1<,1<,,6=@XX",
"#@@@*6>,<,,1<,,,<,1,1,,31196%$$$**%6113113,1111>11311131<,<,3113,,333,1*3t99= @*-,,,,,,1111411,,,,>:,,<,,,,,,333,<,111,,,,6=@X ",
"#@@O=31,>,,1<1,,1,,1<11,1633-%===**91111,,4,,;1>>11113111,<,111,,,1,311*6p99>+@#*1,,,1,1111,11<,,11::,,,,,,11,,,,11,<1,,<16*XXX",
"#@@O=3>,>11133,,<,,,1,,<6313q36366q61,,,,141,;1>;>3111,,<,<,,,31<<,<<11*3t69> @*-,,1111,1,,111<,,1:,,<,,1,,,,,1111331131316*XXX",
"#@@@*31><31131,111,,4,<3,,11111111111,111,4<,11>1><1133<311,,1111333<11*3t99=.@*-,<,,11111,,1,,,11::11<,1<,,,,11,,11111,<,5=XXX",
"#@$@=6>,,,111111,,,,,,3,,<,,1,,,,1,,,,4411<1,<>;>1313311311333,1,,<,,,<*3t69>.@$=,1,,11111,1<1,,,,::1,,,,11,,,<,<<,,,11,,,6*XXX",
"#@$@=3>,=,,,,11,,,1,,3,111111,1<1<,,,4411,,11,113111111311111,133,<,,<>*3t16*.@*-,11111111,14,1,,1,:,,,11,=,,1,,,11,,,,<,,5*XXX",
"%$$@*1>=1<,,,31111113,,1,,11111,,,1,,,1111,1,,,31111111,113113<,<,<,<,>*3t39=.@*=,,,,<,1,,,,11,,,<,1<<1<1,,11111113,,,<,,,6=XXX",
"%@@@*1=3>1,1,,,,<<,1131,3<,<114,,1,,1<4411141,,11111111,11111,131,,4<,,=3w36=.@*-,,11,11,,,,<,<<,,,,,,1,,1311,<<,,,,=,=,,,5*XXX",
"%@@@*3>,,,,,<,,,,<,,,<,,<,,,,1<,,1,,<1111111,,3311,3,133,<<,1,<13<<,<,>*3t69>.+$-,,,,133,<,11<,,<,,,,,,1,,<,,,<,,,,<,,,11,4*XXX",
"%@@@*331,31,,,1,,,<,1,,111,,,,<,11<,1<,<,,4,,,113<,,<131,,<1,<<<<,<<,<>*3t99=.+$*1,,1111,,,111,<,<,11,,,1,,1,<,,,1,,,13<,,6=XXX",
"%@@@%9>1,111,,1,,,1,,,,<,1,,<1<<41,1,1<<4,<,13111<,,11311,,<<3<<<,,1,,>=3t69> @$-,,<<,,1,,1<,,<,1<,11,,1<,,,,=,,,1,,111,,,6=XXX",
"%@$@*3113>11331>11113111111111111133111111111111111111111111111111111>>*6p99>+ #=111111111<;1>>>;>>;;;;;1<<<<<1<<<<<<3311>3=XX ",
"@@@@%63366633333333111131333333113333336333633336q63331133133333122111>*3t99=  %=3223332262<3,,1,<1,1,1,4442255544459qq3339=XXX",
"%@@@@%==*=******$********$$$$$$$$$*$$$$$****$$$$$$$$$***$**$$*$******$$*6p39> X@$$$=*=$$=*O@OOO@O@@@@@@#o#o.ooo#.@@@@@@****;XX ",
"%@@@XXXX@XXXXXX@XXXX@XXXXX@X@XX@XX@XXX@X@X@@@@@X@X@@@@@$@X@@@@@@@@@@@@@*6a69=.++++XXXXXXXX.................@....@......X     XX",
"O@XXXX@XXXXXX$XXXXXXXXXXX@XXXXXX@X@X@X@XX@X@X@@X@@@XX@X$X@@@@X@@@@@@@%%*6p6q=.++++XXXXXXXX........................o....  X X   "
};
