/* XPM */
static char *f3458f61d0ac47bcf9a1895a3a649ec4bolhoAyh8aufWPKa[] = {
/* columns rows colors chars-per-pixel */
"128 127 43 1 ",
"  c black",
". c #040400",
"X c #040404",
"o c #080804",
"O c #0C0C08",
"+ c #100C08",
"@ c #18140C",
"# c #100C10",
"$ c #141010",
"% c #1C1414",
"& c #181818",
"* c #341C00",
"= c #201C18",
"- c #202010",
"; c #28201C",
": c #282818",
"> c #30301C",
", c #242020",
"< c #2C282C",
"1 c #302420",
"2 c #342C28",
"3 c #3C3824",
"4 c #3C302C",
"5 c #383434",
"6 c #541004",
"7 c #442800",
"8 c #583000",
"9 c #403430",
"0 c #403C3C",
"q c #745804",
"w c #644418",
"e c #444028",
"r c #4C4C2C",
"t c #4C4038",
"y c #4C4848",
"u c #5C4C44",
"i c #585050",
"p c #64544C",
"a c #60585C",
"s c #6C6064",
"d c #746C70",
"f c #807478",
"g c #887C80",
/* pixels */
"00<,     #<<550     &,<50y     ,,<<<5y     &,<<50y     &,<<<50s      &,,<<55y     &,<<55y     ,<<<55i     &,<<5i     &<<50i     ",
"XX&  &,&*-OOO  .O#&-+&&oX             O#&o  #-X   #&&&&&<5>>>9yyy9>>>5<&&&&&#    <550yyiaidsaiiiiafs00y00y00yiiiy00000i&,&  &000",
"XX  &&&&0-O@X  OO&,&&&XX  oOO OO      X#&XO#,,X OX&&,<<<5>>>>>>>>>>>>>5<<<,&&XX. <555<,,<5<<55<<,<<<,<<<<55<<<<<5<555yi&&&&  005",
"XX   &,<0@O@X  OO,<<,&##&#*&###XOOO##XO#&XO#-,X X #&5::::9yy9:,,,:9yy9::::5&& XXO<5                        ##&      5y0<,&   005",
"XX  &&&&5@O@X  OO,5<<<<,--,<<<<&XO#,<,,,,XO#,5##O@<O5::::yyy9:<,<:9yyy::::5O<@X&O<5  #<<539& ,<#,3,#5&#<y5&<9y5&&&3,5y0&&&&  005",
"XX#&&&<<0@O&XO OO,555<<,--<5<55<XO#,555<,X &<5##@@eO5555555<<5:9:5<<5555555Oe@XX <5 &<3&&&5&&9& ,#  ##9u5 &5&#  <&  5ye<<&&&#055",
"XX&&,,&<i+OoXOoo#500>55<&&<50005@X-55y05<o #<5@#O@9&&&&&&,,5::ypy::5,,&&&&&&9@XXO<5  #5&#<3<5<#,< &9,#&#< #&#,<<95  5yi<&,,&&555",
"XX&&<<&& &@&XO  @,0y0005,&<00yy5&#,5yiy5<X@&<5# O@:&&&&&&&,59:<5<:95,&&&&&&&:@ XO<5   &  &&    && &<&   ,   &&&& #  500&&<<&&5,<",
"XX &&,,&,@X#oOoXO5yyy005,,<yyyy5,@:50iy0<XX#-<# O->&&,,,<,<<&&&&&&&<<,<,,,&&>-OX <55555000005000000yiiyyyy000005000055y&,,&& 055",
"XX&&&&<<,@ #XO  O5000y00>,<0y05,&@:55yy5<X #,5# O-:&5>>9u9>><&&#&&<>>9u9>>5&:-OX <,&##,<,,&&&&&&&,&&,,,&&&&,&&,<<,&&&,y<<&&&&5<5",
"XX&&&<0<,  #XOO@ >500500<<>5>55<,&-<<5,<,XO@,5##O:3&533399933,535,339993335&3:@XO                                    -0<<<&&#055",
"XX&&&<0<<  #XO @@<y55>>5iiiiaaiiy>:<<<-,,X @,5##@:9&5>>>>99>5&>u>&5>99>>>>5&9-@ X5### XO:e:-  X       -2222a200505000-i55<&,&05<",
"XX& &<0<<-O@@+ &&<0505yyi00500050eai05,,-@O@,5# O:3&&&&,<,&,<,&#&,<,&,<,&&&&>-Oo 5###   @-@X  X, &X& &-11110110505011-a5,<&,#055",
"XX& #<0<i-O @  X#<50iaiaiyyyiiyyyy0iy05<&X @,5##,,,&&&&,<<&&&&&#&&&&&<<,&&&&,,,#Xy&#X          y 0X5 0-10:,&,:,:,,:01-a<<<&& 5<<",
"XX#&&<<<i@O#@XXO#,5iiy00<<<555<<55<<0yy5,X &,-X#,,,>5>9y9>>&9><&<>9&>>9y9>5>,,,#X ,&X XO:>-O   & & & &@;;:550000555;;@a<<&&, 5<5",
"XXX&&<0<y-O@ &@ X-ii0i5&X55X&0<&&55&<<5,<XO,<:##,,,5:::::::,:::9:::,:::::::5,,,# 5<## XXO@OX          -;0&555;;055:5;-a<&&&, 05<",
"XXX,&&<00@O&#@& :yy05a<##0<X#0,#&y5#,50#&<@&<< #,,,55555<55&::upu::&55<55555,,,# 0&&X                 &=0:0,,,,,,5:==&i<,,,, 055",
"XXX&&,0<y-O@&@@&,,05<a5  0<&#y<#X05#,<&,5y,&,<  &,&&&&&&,,<&9-5-5-9&<,,&&&&&&,&  0,&# X::e:@    X     &00:55550055:;0&i<,&&& 055",
"XXX&&<<<0-O&,&,y5&#<5y<&#i<&&0<,<0<#,&&0<50<<<X ##@                          ##  5,&# XX@:-O    OXX@- #11:50111105:a1#r<<<,& 5<5",
"XXX&&,<<i-@,,-yi0<X&<500y0<5y5<5i5<#&&<<5500<,  #<y&5i&,,&&&&,, ,,&&&&,,&i5&y<#  5,,&   X       ->>3: X22,5,@O&&,5520Xi<55<,#005",
"XX  &<<<i-#,,:i55<5&#5<<55,&&&&,,,<&&<5<<5<05<#O#<y&5y<,is0000< <aa00i0,<y5&y<#   ,,#  O:>:@    X>O@-XX22,55502055:22Xi<<<,&#i05",
"XXX <<&<i+O&&500<<5<,#<5,#X   X#,5&&5<5<<0<505# &<y&50,,is00005 5aa00i0,,05&y<&  ,,&X   O@XX    X:>--e#05:55044405:44#a<<,,, i5<",
"XXX&&<<<0-O#:e<<<5<<<,## X#&&&#X #,<<5<5<5<,<-X &<0#<5,,iiiada< <fgai00,,5<#0<&  &&#           XX:>@- @05,5,,&,,:5:22@r<<,&&#0,<",
"XXX,&&&&0+ #5i0<,,<<<0& #&X   X&# &0<5<<<5y<&-  &<0#,5,,50iiii, ,iiii05,,5,#0<&  XO    O>e>-X   X-:--  40,55500055:40 a55,,&X<,<",
"XX#<&,,&<-#,yai<<<5<<, ## &,&,O ## ,5<5<05a5&&o &<0#,&&&<<<&&&# #&<<<<<&&&,#0<&  5###  X@-@X    XXX@# X44:55044455:a5Xa<5<&# 0<5",
"XX#,,<,&5-#<0<yiy55<0X#@#&&5&&&&#@#X0<00yy<<--X &<5#777777777<# #*777777777#5<&  5###           X  X  @44:5,&,,,:5:40@a55<,& 05<",
"XX#&,<,&y@X-y5,<0ii0< &#&,<3&<5,&#& 0isi5<,5,,X &<5#7********#& #X77******* 5<&  y&#X  O:>:@          @04,55550055:44@y<5<,,#0<<",
"XXX,&,,&0,,550&5,5,5#X#&&&&<&,&&&##X#5,5,5&05<X &&0&*oXXXXooo ### **oXXXXo  0&&   ,&X   O@OX   , &X& & 22,50002205:22 0<5<,&#55<",
"XX#<,<,,y%&5y0&0&5,5X#X&<<&,&5&<&&X#X5,5&0&0<5 O#&0#*oX   ooo isiX**oX#&Xo  0&#O 5<##          y 0X5 0#25,5:&,,,,5:22#i5<<,&&00<",
"-X#<<<,&i<&-50&0&0&0 & &&&,&&,&<,, & 0&0&0&0,<@ &&0&*oX 6 o** ,<, ooo#6,oo  0&&  0&&X X@:>:@   & & & &@40:55550055:44@a0<,,,&0<0",
"@-#,,,,&y:X@<0&0&0&0 & &,&<<&,&&&& & 0&0&0&0<>@#&<0,*oX   *** , # oo* &&*o X0<&#X0,&# X X:@X          @45,50444405:44@d5<,<,&y00",
"O@#&,<<&<- &00&0&0&0 & &&,<,&3,53, & 0&0&0&05y&X#50,oX Xooo**X, # ooXooXoX #05#XX5,&#          , &X& &@05&5,,&&@,5:22@s0<<<,&y00",
"@O#,<<,,0  X55,0&5,5X#X&<,<&&,&&&&X#X5,5&0,50i&O#00&***o*****#isi ***o*o**X#00#OO5,,&  X@>:O   y 0X5 0@05,550255:5:20@d5<<<,&y05",
"-O#<5<<,0-  <<<yiai0#X##&&&&<&&<&O#X#yya55<55y  #5<&o*o******,,<, oo****o*o&<5#   ,,#    @X    & & & &@15:50111105:15@a55<<,,y00",
":X 5555<0@  ,5y0<500< &O&<<&5<&,&O& <00<iy5005@O#,&&&&# -  &,<, #<*o  - #&&&&,# O,,&X                 -25,5:,,,&,5520-0<<<<<,050",
"-@ <<<<<0@  Xyi<55<<0X#@O&&&<,&&O@#X0<5<50i5y5X##&,&X     .77o, ,&77.     X&,&##O&&#  X::e:@          -20:50255555:20-><<<<<,000",
"@- 0<5<<y#   i505<5<5, ## &&,,& ## ,5<5<<5i0y&@#&5yy05,@3 .88*# #,88. 3@,50yy5&##XO   XX@:-O           0002aa22tt2020 ><,<<<&500",
"O@ <555<a@   -50<<<5<0& #&X   X&# &0<5<<<00a* XX#0000<,XO .78 0y0X87o@OX,<0000#XX,&#    X              15500050111010 ><&,<<&<50",
"O@#<5<55f#    555<<5<<5# X#&&&#X #5<<5<<5554o  #&00555,:e *78 iiaX87*@e:,55500&# 5,&#  O:>:@          @05555505555505@><,,<<&500",
"OX#<<555f#oX  ,555<<5,<5,#X   X#,y5<<<55050,  OX&0y5<,<XO *   <<<X*.* OX<,<5y0&XO5,&#  X,<&#   X    X  @&#  O-,XOO    ><,<<<&000",
"XX#<<<<0i@#X  o>505<<<<5y0,&&&,55ii5,<5050,*  O &0y5<<53O oo..&###.oo#O35<<5y0&XOy,,& &<&<,&&,,&<<<<<<<<<55<-<& <OOO# 0<<,5,,y00",
"-X&<<<5<>+##X  o0<55<50a5<50005<&5ay<55<0w&     #55<,<--O o77 &5&X77o&O--<,<55#XO ,,# X<&&<&&&&<<<5<<<<<<505<55 ;<O&# a<<<<<&0yy",
"@- <55050-#XX   ,y<550a5,<,&&&,<05<i05<yy,      &<,<<>r@ #*77 &y&X77*##@r><<,<&X ,,#  o5ii000<5idffffgfdidsiii: ;0#,# i<5<&,&000",
"-: &<&<<0@##X   X,y<5yi5&<50005<&,5yi<<5*   .#O #5<<:e:X &*77.&y&#77*&0#:e:<<5#X &#    o$o&&o&<5wiiiiii050&<# @ 00&;, >&<<&&&y50",
">> ,&,,&y-&&X     #5ai0,,<<&&&<,,<50ay&     #,@OO::e@@X ,&o77 ,0,X77o&,X#<@e:5&#XXO       &X XXXo@#.##@.XX<.O @ 00&10 0&<<<<&y50",
"3r &<<&&0&@-@XO OO  <0<<50000000<&<yw,X     #,@ XXX X  #0&o88 ,5,X88o&0##X# XOO  0,&# 5<,05<,5y00y0y00yyiiy5<5X 0iO01 0&<<<&&000",
"3e <&  &<@&&X     OOX#<5y<<<<<<<<,,5&X      @-        #<0&.78 #<#X87.&0<#        5,&# #5<,05<,5y00y0y00yyiiy5<5 0iOi0 0&<<<& y00",
">e &&&# 0,--@@O   O    ,5yy5yii0<# o.  #X   &, #   #,<<yi&o77 #<#X77o&iy<<,##  # 5,,& o5iiyy0<5idffffgfdadsiii: a0Oa0 a<<<<<&iyy",
">- &&&  0,,&XOO   OOOO XX@    o o   .oo X   o<X####,<500y&o77 &#& 77o&y005<,####  ,,#  o$o&,o,<5wiiiiiiy50,<#o@ aaOid i,<<<<&iyy",
"@O&,&## <--,XO  @XXOOOO  O .       o&*.oX   o<   X&<<<<<<&o   & &#o o&<<<<<<&X   ,,&X     XX XXXo@#o##@oXXooO @ da#id i5555<&aiy",
"X@&<,    @@-@@@ ,*&##X  OO OO      #,*. #XO#,-   # XX# X X#&&,# #,&&#X X #XX #   &&#  5<,05<,5y00y0y00yyiiy5<5X adO0a >055<<&ayy",
"X-&<<&  <#&&&&&.,5<<<,#X  o#XOOO  #&<&X   O@-,@    XXXOXOOX O@X X @XXX@OOOX O@X OXO   #5<,05<,5y00y0y00yyiiy5<5 a0#20 >5<55<&syy",
"X-&555& O+&,-@,#50055<-&oO&,&X O O@,<@X@o O&,<  OX-::O:::O>::@X XX:::O>>:O>>:@@X ,&# #o5iiyy0<5idffffgfdadsiii:#i0#20 i05555&ay0",
"XO&55<<&0-&,-@-o500005<-&X-,#X@@& &<,@#&, O#-,X OX-::@:::@:::-O XX:::@>>:@>::-@X 5,&#  o$o&,o,<5wiiiiiiy50,<#o@ 00O22 0005<5&iy0",
"XX&<<<<&>&#,&&&#5000y0>,&X&,-@@-@O,5-&,&o. @-<X O ---@:::@:::OO X ::-@>>:@>>:O@XO5,&#     XX XXXo@#o##@oXXooO @ 02O,, 050055&iii",
"XX&<<<5<5@#,-&-&50y0yy5<&@&<:&@@X@,5:&-,&  #,<X# X@--O:::@:::OO XX@--O:::@:::OX Oy,,& 5<,05<,5y00y0y00yyiiy5<5X 0<O,2 i0005<&iyi",
"XX&<5<&,<-&,-&-&5y00yyy<,X@-,,@-XX,5<,&,,. X-, ##&&&&&&,&&,,&,& ,&&&&&&,&&,,&,##  ,,# #5<,05<,5y00y0y00yyiiy5<5X2<O#2 i500<<&yy0",
"XX&<,,&&a<550yyiaidsaiiiiafs00y00y00yiiiy00000   #&,<&55,&&,,<& #5<,&&&<5,,<,&   ,,#  o5iiyy0<5idffffgfdadsiii: <#OO# 0<505<&000",
"XX,&&<<&y<555<,,<5<<55<<,<<<,<<<<55<<<<<5<555y   &000yiy&&50<<, &5aiy0005<&&&&X  &#    o$o&,o,<5wiiiiiiy50,<#o@       i5555<&5y0",
"XX,<55<,0<5                        ##&      5y  #&0<<505#&5#X,, #50<<,<,#,&&&&#X XO       XX XXXo@#o##@oXXooO @,0yy5@ i,<<5<&,50",
"XX,5<<50a<5  #<<539& ,<#,3,#5&#<y5&<9y5&&&3,5y  XX<,  ,&XX,XX,, &,0<&###X  ##X# -OOO  .O#&-+&&oX             O#&o  #-X5 &&5< &,5",
"XX&<<5<0d<5 &<3&&&5&&9& ,#  ##9u5 &5&#  <&  5y    5 &#,,X  XX,, &,0##X#&X   #X #-O@X  OO&,&&&XX  oOO OO      X#&XO#,,Xy&<&5< <&y",
"XX&<5550f<5  #5&#<3<5<#,< &9,#&#< #&#,<<95  5y  ##y<&,,,####&<, #,0&&&<&X#X#,## @O@X  OO,<<,&##&#*&###XOOO##XO#&XO#-,Xs<55<<,i&5",
"XO&555<<a<5   &  &&    && &<&   ,   &&&& #  50  &&y,,<5<#,0y,,X X&y<,,<,#&&#&,&X@O@X  OO,5<<<<,--,<<<<&XO#,<,,,,XO#,5#f05<5<&5<0",
"X@ <5<<<i<55555000005000000yiiyyyy000005000055X #&&XX##X#,0, ,X  ##X#XXXX,,X#&&X@O&XO OO,555<<,--55<55<XO#,555<,X &<5#f505<5#000",
"X:#5<505f<,&##,<,,&&&&&&&,&&,,,&&&&,&&,<<,&&&,  #&&##&&&,,0, <#  ,,<,,<,&&##&&# +OoXOoo#500>55<&,550005@X-55y05<o #<5@i<<<5< 000",
"X-&<5<50f-                        XXXOXXX       ##&X#&,,,&#  &   #&&&&,&&&&X##&X&@&XO  @,0y0005<<200yy5&#,5yiy5<X@&<5#a<<555&000",
"X-,<<55<s@4444a400505000        X#X-:e:O  ###5@ &#&,<505<&&,5<& #X<0#5y&00<,,#& @X#oOoXO5yyy005<50yyyy5,@:50iy0<XX#-<#f0555<&500",
"X@ <5&<&y@44440440505044 & &X& ,XXXX@-@   ###5# X#&<d0#0055055, ,#0s&if,is5<&&X @ #XO  O5000y00>500y05,&@:55yy5<X #,5#d0<5<<&<00",
"X- <5&& 5@20:,@,:,:,,:02 0 5X0 y          X#&yX  #,<f5 X#&&,&<< &#ys ifX0s5,,&#   #XOO@ >50050050>5>55<,&-<<5,<,XO@,5#a05<<5,005",
"O-&<5<<,i@22:55000055522 & & & & XXO->:O  X&, @ #&&<a& ##,,<&<< &,ia&0i#50&,,&&X  #XO @@<y55>>5iiiiaaiiy>:<<<-,,X @,5#0,<55<,<<<",
"O@&<5555i@10@55511055:51         XXXO@OX  ##<5# #,&&&&,&&,&&,,, #,00,0y,55&,,,,X-O@@+ &&<0505yyi00500050eai05,,-@O@,5#y&<<&&,<<5",
"X-&<505<0@10:0,,,,,,5:11                  X&&0# ##&&,<5,<<,&&,<<<<,&&,<,50<&&&& -O @  X#<50iaiaiyyyiiyyyy0iy05<&X @,5#a&&,,<&500",
"X@&<<005i@00:55550055:;0      X  XX@:e::  #&,0X ##&&<5& <# X < #& X# X, X5<,&&X @O#@XXO#,5iiy00<<<555<<55<<0yy5,X &,-X<,&<5<&0<0",
"X@&<5000i@11:50111105:a1  &&&&,   XO-:@X  #&,5X #XX#5,X#&###&############&<&XX  -O@ &@ X-ii0i5&X55X&0<&&55&<<5,<XO,<:#5<5<<<&y0y",
"OO&550050O11,5,@O@@,5510  ,0ii5       X   &,,5# #  &0&                   &5<#  #@O&#@& :yy05a<##0<X#0,#&y5#,50#&<@&<< >&<<<<&000",
"@@&5<5000O11,55501055:11#X&&,a&   X@:>:O  #,, X  #X&0,X  #&, #X #,  #&   #0<X#X -O@&@@&,,05<a5  0<&#y<#X05#,<&,5y,&,< 0&<<55&y0y",
"@O&55550i@05:55011105:110y&,a0&    XX@O   X&,,X  #X,5,  # 6 # q  q   6   &5<X#X -O&,&,y5&#<5y<&#i<&&0<,<0<#,&&0<50<<<XO &555&iy0",
"@O&<55<5>@05,5,,@,,:5:22  #&i0&X           #&&X  &##<&# <#  <#  #   #    <5&X#  -@,,-yi0<X&<500y0<5y5<5i5<#&&<<5500<, <  &<<&i00",
"@@&<<550> 10,55500055:10  &,05&   O->e>O    OX   # X&550055005500550055005,X #  -#,,:i55<5&#5<<55,&&&&,,,<&&<5<<5<05<#    ,<&iyy",
"@@&<5555iO22:55022255:a5  #&&##  XXX@-@X  ###5@  # XX,50055005500550055005&X##  +O&&500<<5<,#<5,#X   X#,5&&5<5<<0<505#< ##&,&y00",
"@@&<<<<,i@22:5,@,,,:5:20   X  X           ###5#  &&X# #&&XX #&X  ## #XX&# # ##X -O#:e<<<5<<<,## X#&&&#X #,<<5<5<5<,<-X0  &&& y00",
"@@&<<<<<a@02,55550055:22         XX@:>:O  X#&yX  #&&,<<50yiayyy055<<55<&,,&&&&  + #5i0<,,<<<0& #&X   X&# &0<5<<<5y<&- 0 #&&& 50y",
"@@ &<<<&0@22,50002205:22 & &X& ,   XO@O   X&, @ #&&,<,55<505,55<,,,,,50,<05,,&&X-#,yai<<<5<<, ## &,&,O ## ,5<5<05a5&&o<&  &< &yi",
"@@&&<<<&0@25,5:@,,,,5:22 0 5X0 y          ##<5# X#&&,,<,,,,&,,,<<<,&&,<,,<5&&## -#<0<yiy55<0X###&&5&&&&###X0<00yy<<--X0&&<<& &5i",
"@@&<<<<&0@10:55550055:11 & & & &  X@:>:@  X&&0O  XXX       OX      OX      OOX O@X-y5,<0ii0< &#&,<3&<5,&#& 0isi5<,5,,Xy&,,&, ,<i",
"@@&&&<<&>@15,50111105:11           X@:X   #&,0X #,<<<<,,, ,,&# # ##,, ,,,,,,<,X ,,550&5,5,5#X#&&&&<&,&&&##X#5,5,5&05<X0<<&<& ,&y",
"@@&,&<5<i@05@5,,@@@,5:11 & &X& ,          #&,5X #,<<<,,<, ,&,, # #,&, ,,<,,<<,X %&5y0&0&5,5X#X&<<&,&5&<&&X#X5,5&0&0<5 05055< <<0",
"@@&<<<<<a@05,550;55:5:;0 0 5X0 y  XO:>@X  &,,5O ,,,<&,,,&#&&&  #  &&&&#&,,,,,,OX<&-50&0&0&0 & &&&,&&,&<,, & 0&0&0&0,<@><5<<<&0,5",
"@@,,5,<<0@=5:50====05:=5 & & & &    X@    #,, X .%%%%++ +%%%%++ ++%%%%% ++%%%%+.:X@<0&0&0&0 & &,&<<&,&&&& & 0&0&0&0<>@i0<<<<#0&<",
"@@&<<<,<>@=5,5:,,,@,55=0                  X&,,X %%=1=+% %%=1=+% %+=1=%%X%+=1=%%+- &00&0&0&0 & &&,<,&3,53, & 0&0&0&05y&f555<<#5,,",
"@@&<<,,<>@%0:50%55555:%0         XX@:e::   #&&X % %%%%%.% %%%%% %%%%% %X%%%%% %+  X55,0&5,5X#X&<,<&&,&&&&X#X5,5&0,50i&f55<5<#,5&",
"@@&<<,&<> 000%aa%%22%0%0          XO-:@X    OX   .%     +%           ++     %+  -  <<<yiai0#X##&&&&<&&<&X#X#yya55<55y a<555< ,0&",
"@O&<<<,<> =5500050===0=0              X    #&,     . . X##,,,, # ,,,,##X @      @  ,5y0<500< & &<<&5<&,& & <00<iy5005@y<<5<0 ,0,",
"@O,<<<<<>@05555505555505          X@:>:O  #&,5X  O@--@X ,,505<,,,<505,, #&---&&#@  Xyi<55<<0X##O&&&<,&&O##X0<5<50i5y5X0<<<<< &<&",
"@@,<<<<<0 @&#  O-,XOO   O X    X   XX@O   #&,5X &&&-<&& ,,,5y5###5y5,,,&&&-<&&& #   i505<5<5, ## &&,,& ## ,5<5<<5i0y&@0<5555 &<&",
"@O,,<<55a #OOO< &<-<55<<<<<<<<<&,,&&,<&<& &,,yO&&#&-&-& , ,<05,&,50<, ,&#&&-&#&#@   -50<<<5<0& #&X   X&# &0<5<<<00a* X0,<<5<#<5#",
"@O&,<<<5d #&O<; 55<505<<<<<<5<<<&&&&<&&<X #,, X#&&&->>&    ,55,&,55,    #>><&&&##    555<<5<<5# X#&&&#X #5<<5<<5554o  0,,<<,#<,#",
"OO&,<<<0s #,#01 :iiisdidfgffffdi5<000ii5o  #,,X&&-&&<<#X   #<,,#,,<,   &&->&&-&&#oX  ,555<<5,<5,#X   X#,y5<<<55050,  O<&<<,&#0<,",
"OX&,<,<5d ,2&00 @o#<&050iiiiiiw5<&o&&o$o    #&X&&&--<<&OX   ,,&#&,,    &&-<---&#@#X  o>505<<<<5y0,&&&,55ii5,<5050,*  Oy&,,,,#0<<",
"XO&,,,<0a 02&00 @ Oo<XXo@##o#@oXXX X&       OXX&&&-<>,@&&&&#,,X X,, &&&&&->><&&#+##X  o0<55<50a5<50005<&5ay<55<0w&    i&,<<<#<,&",
"OX&&,<<5i 20Oi0 X5<5yiiyy00y0y00y5,<50,<5 #&,0X&&&-<>>@&&&##  X-X   #&&&@<>><&&&-#XX   ,y<550a5,<,&&&,<05<i05<yy,     y,,<,<#<&#",
"XO#&,<5<0 0iOi0 5<5yiiyy00y0y00y5,<50,<5# #&,5X#&&-<>>,@#&&&:eO-O>@ #&&&@>>><&&#@##X   X,y<5yi5&<50005<&,5yi<<5*   .#O0&,,&,X<&&",
"OO#,,<5<y 0aO0a :iiisdadfgffffdi5<0yyii5o &,,5O&&&->>>:@&&##X@X-XXX #&&X,>>>>&&&-&&X     #5ai0,,<<&&&<,,<50ay&     #,Xy&,<,&#&&&",
"OX &,<55a diOaa @o#<,05yiiiiiiw5<,o,&o$o  #,, X&&-<>>>@&&#&&-3X-@:O &&&&&>>>>--#&@-@XO OO  <0<<50000000<&<yw,X     #,X5&,<,,#&&&",
"XO #&<5<a di#ad @ OooXXo@##o#@oXXX XX     X&,,X&#-<><3:@&&&&X@O-OXX &&#X@3>><<&#@&&X     OOX#<5y<<<<<<<<,,5&X      @- <&,,&<#&&&",
"OXX&,,55a a0Oda X5<5yiiyy00y0y00y5,<50,<5  #&&X&&&<&->@&&&##@eX-X>X #&&&&><&--#&,--@@O   O    ,5yy5yii0<# o.  #X   &, 0&&&&,X<&&",
"XO#&&,<<r 02#0a 5<5yiiyy00y0y00y5,<50,<5#   OX &&&&->>&&&&&&XX@@@XX &&&&&>><&&&&,,&XOO   OOOO XX@    o o   .oo X   o<X0<<<&&X<&&",
"OX ,,,<<a 02#0i#:iiisdadfgffffdi5<0yyii5o# #&, #&&&-<>:@&&&#@3 i :X ,#&&&-<>><&&--,XO  @XXOOOO  O .       o&*.oX   o< i<&<< X5,&",
"OX#&,<<<i 22O00 @o#<,05yiiiiiiw5<,o,&o$o  #&,5X&&&-<>>@&&&##XX      #&&&@<>><&&&@@-@@@ ,*&##X  OO OO      #,*. #XO#,- i<<<&  y0<",
"XO#,<55<i ,,O20 @ OooXXo@##o#@oXXX XX     #&,5X#&&-<>>,@#&&&-e@-@>O #&&&@>>><&&##&&&&&.,5<<<,#X  o#XOOO  ,,<&X   O@-,@i<<,&&X5,&",
"OX &,<<<r 2,O<0 X5<5yiiyy00y0y00y5,<50,<5 &,,yO&&&->>>:@&&&#X@@-@XX #&&X,>>>>&&&+&,-@,#50055<-&oO&,&X O O@,<@X@o O&,< 0<<<&&X<<&",
"XO &&&,<i 2#O<2X5<5yiiyy00y0y00y5,<50,<5# #,, X&&-<>>>@&&#&&-e@-@>O &&&&&>>>>--#-&,-@-o500005<-&#-,#X@@& ,<,@#&, O#-,Xy<0,&&X<<<",
"XX ,,,,<i #OO#< :iiisdadfgffffdi5<0yyii5o  #,,X&#-<><3:@&&&&X@@-@XX &&&X@3>><<&#&#,&&&#5000y0>,,,,,-@@-@O,5-&,&o. @-<X00<&&,X<<<",
"OX ,&&&<a       @o#<,05yiiiiiiw5<,o,&o$o    #&X&&&<&->@&&&##-r@-@3O &&&&&><&--#&@#,-&-&50y0yy55,@,0:&@@X@,5:&-,&  #,<Xy<0<&&X555",
"XX ,&&<<a @5yy0,@ OooXXo@##o#@oXXX XX       OXX&&&&->>&&&&&&XX@@@XX &&&&&>><&&&&-&,-&-&5000yyy<,X@-,,@-XX,5<,&,,. X-, i<<<&&#<<<",
"OX&   #&& &#&#      ## #X  ##&&&&&,,,&&&&,&&&&& &&&&&&&&&&&&&  ,&# &&&,,,&&&&&&&&&       &###    ######X###XXX XXXXX#&&&&& &&#  ",
"XO    &&&&&&,,&,,,&&,&,&&#&,&&,,,,,<<<<<<,<,&<&&<<<<<555<<<<<<<<<5<5<<5<&<<<<55<<,&&<&,&<<<<<<0<5<,&,<<,&,<,&  &&&,&&  &&&&&&&  ",
"XX & &&,<&&&&&&&&,&,<,,&,&,,,,,<<<<<<<<<<5<&&<<<<<5<55<55<55555<5<555<<5&,5<<55<,&&&&<&<5<<<55<<55<,,<,&,,&&&<&&&&&&&#&&&&&<,&& ",
"XX&&&&&,<,&<<<<&&,&<5<,,,<<<<<,,<<<<<<,,<,<<<<<<<<5555500005<&&5<5<555<5<,<<<<5& #&& <,&5<<5<55<5<<<,<<,<<,&<<<,<,&<<<<<<&,<,&&&",
"XO,&,&<&&,<<5,<<&,,<5<<<55555<<<<<5<<,&,,<<5<<<<<<55<5000055<&<550<<5<5<<&&5<<&  # # &,<05<555<<5<,<,,,,,,,&<&<<<0<0<0000<,&&<&,",
"XX&&<&<<&&<<55<<<<<<<<<<5<5<<505055<<<<<<<<<&&&&<,50500505<5, &<05<<000,&&,<&&      &&&<5<055<<<<,,&&&,&&&&&<<<<<<0<<<<<<<&&<<&<",
"XXii00ei0yy0iaaaaiiriiaraaay0iadsda0>>>>>0ai>000aii>>i00ii0ii5ysffiafda0ya<5>0O< <00<0y00>iffay0000<yiy0y5<00iii0y0yii<<,,, i050",
"XX&&,,&<ii002<&*yiaiaiaaiiaaiyai00iae>000iaai005000<yaay<000500iaai000@:ai0002<&*yiaiaiaaiiaaiyai00iae>000iiii005000<0i<&,,&&000",
"XX#&&&<<e00<&-*0iy0y0yyiyi0i00>>0i00y0y050000<05<5<,*yy*,<5<50<000050y0y00i0<&-*0iy0y0yyiyi0i00>>0i00y0y050000<05<5<,,0<<&&&#000",
"XX  &&&&0y0052y0yyyiiyyiy0yy0yi00i0000yyyy5000<0<05<<55<<50<0<0005yyyy0000i0052y0yyyiiyyiy0yy0yi00i0000yyyy5000<0<05<<5&&&&  005",
"XX   &,<0i000>0iiiyyyyyiy>iiy0iyyyw0<y00i0005<-0<0<<<00<<<0<0:<5000i00y<0wy000>0iiiyyyyyiy>iiy0iyyyw0<y00i0005<-0<0<<<0<,&   000"
};
